<?xml version="1.0" encoding="UTF-8"?>
<svg id="_レイヤー_2" data-name="レイヤー 2" xmlns="http://www.w3.org/2000/svg" viewBox="0 0 500.22 451">
  <defs>
    <style>
      .cls-1 {
        fill: #c69c7e;
      }

      .cls-2 {
        fill: #ffdffb;
      }

      .cls-3 {
        fill: #fff;
      }

      .cls-4 {
        fill: #ffd995;
      }

      .cls-5 {
        fill: #a67c52;
      }

      .cls-6 {
        fill: #ffcdf3;
      }

      .cls-7 {
        fill: #ffc0fc;
      }

      .cls-8 {
        fill: #f0f;
      }
    </style>
  </defs>
  <g id="ninpu">
    <path class="cls-1" d="M120.41,156.57c-4.09-.71-7.72,1.1-10.92,3.5-3.64,2.74-7.07,5.79-10.58,8.7l2.51,1.46c.57-3.83,3.75-6.37,6.79-8.39,3.51-2.33,7.31-4.14,11.33-5.4l-1.46-2.51c-3.58,3.85-7.17,7.7-10.75,11.56-1.31,1.41.77,3.51,2.12,2.12,5.8-5.97,12.82-10.68,20.59-13.7l-1.46-2.51c-5.47,6.48-11.1,12.82-16.89,19.02-1.11,1.19.36,3.37,1.82,2.36,8.07-5.62,15.87-11.62,23.37-17.98l-2.36-1.82c-2.18,3.58-3.93,7.41-5.23,11.4-.55,1.69,1.83,2.51,2.74,1.16,2.01-2.97,4.86-5.36,8.17-6.75l-1.85-1.05c.41,1.61.65,3.22.72,4.88.05,1.18,1.68,2.12,2.56,1.06,2.1-2.53,2.52-5.83,1.1-8.8l-1.3,2.26c3.11-.12,6.1.55,8.84,2.03v-2.59c-2.92,1.84-6.45.69-9.36-.59-2.71-1.2-6.61-3.7-9.64-2.4-1.48.63-2.66,2-3.84,3.05-1.46,1.31-2.93,2.63-4.39,3.94-2.93,2.63-5.86,5.26-8.79,7.89l2.56,1.06c.56-4.38,2.95-8.54,6.46-11.22l-1.82-2.36c-5.3,6.63-12,11.93-19.68,15.55l2.05,2.05c3.07-4.52,6.77-8.53,10.98-12.01,1.37-1.13-.38-3.1-1.82-2.36-7.14,3.68-14.28,7.37-21.41,11.05l1.82,2.36c4.58-5.68,10.64-9.98,17.56-12.32,1.82-.61,1.04-3.51-.8-2.89-7.39,2.5-13.98,7.01-18.88,13.09-1.05,1.3.23,3.17,1.82,2.36,7.14-3.68,14.28-7.37,21.41-11.05l-1.82-2.36c-4.41,3.64-8.24,7.89-11.45,12.61-.92,1.35.82,2.63,2.05,2.05,7.87-3.71,14.85-9.21,20.28-16.01.96-1.2-.34-3.48-1.82-2.36-4.45,3.4-7.24,8.25-7.95,13.81-.18,1.4,1.7,1.83,2.56,1.06,2.81-2.52,5.61-5.04,8.42-7.56,1.46-1.31,2.93-2.63,4.39-3.94,1.09-.98,2.58-2.99,4.18-2.81s3.33,1.08,4.83,1.76,2.99,1.38,4.57,1.86c2.98.9,6.31.98,9.02-.73.92-.58,1.02-2.04,0-2.59-3.19-1.73-6.73-2.58-10.36-2.44-1.2.05-1.79,1.22-1.3,2.26.8,1.66.55,3.74-.63,5.17l2.56,1.06c-.08-1.92-.36-3.82-.83-5.68-.18-.71-1.11-1.36-1.85-1.05-4.09,1.72-7.48,4.45-9.97,8.13l2.74,1.16c1.22-3.75,2.87-7.31,4.92-10.68.93-1.53-1.11-2.88-2.36-1.82-7.31,6.2-14.9,12.04-22.76,17.52l1.82,2.36c5.79-6.2,11.42-12.54,16.89-19.02.86-1.02.07-3.1-1.46-2.51-8.26,3.22-15.73,8.11-21.91,14.47l2.12,2.12c3.58-3.85,7.17-7.7,10.75-11.56.98-1.05.03-2.98-1.46-2.51-4.53,1.43-8.87,3.49-12.78,6.2-3.38,2.34-6.8,5.4-7.44,9.68-.22,1.49,1.3,2.46,2.51,1.46,3.09-2.56,6.14-5.18,9.28-7.68,2.57-2.05,5.83-4.35,9.31-3.75,1.89.33,2.7-2.56.8-2.89h0Z"/>
    <path class="cls-7" d="M132.46,215.15c-.07.21.07-.18.08-.18,0,0-.05.1-.06.11-.05.11-.17.12.12-.15-.03.03-.06.06-.08.09-.01.01-.09.09-.09.09-.01-.02.34-.23.15-.12-.07.04-.15.08-.22.13.31-.2.3-.11.18-.08-.04.01-.08.03-.12.04s-.08.02-.13.03c-.13.03-.19-.04.2-.03-.08,0-.18,0-.26,0-.06,0-.2-.02.07.01.29.04.07,0,0,0-.04-.01-.08-.03-.13-.04-.22-.05.19.06.18.08,0,0-.23-.12-.23-.13,0-.02.3.28.14.1-.03-.03-.07-.06-.1-.1-.02-.02-.09-.08-.09-.11,0,0,.21.31.11.13-.04-.08-.09-.17-.13-.25.19.3.11.28.07.16-.01-.05-.03-.09-.04-.14-.05-.17-.01-.4-.01.05,0-.11-.02-.22-.01-.32,0-.04,0-.07,0-.11,0-.25-.02.2-.03.18-.03-.04.05-.24.07-.28,0,0,.03-.12.05-.14,0,0-.19.38-.06.15.06-.1.12-.2.18-.3.1-.15-.22.25-.09.12.03-.03.05-.06.08-.09.07-.08.15-.14.23-.22.18-.17-.11.09-.12.09.02-.03.11-.07.13-.09.1-.06.21-.12.31-.17.06-.03.23-.1,0,0s-.08.03-.03.02c.1-.03.2-.07.31-.09.05-.01.1-.02.16-.03.24-.06-.16.01-.16.02.04-.01.12-.01.17-.01.06,0,.33.02.06-.01s-.49-.17-.64-.38c-.21-.29.06.18-.09-.15-.1-.22-.05-.1-.03-.04.08.2-.04-.15-.02-.18-.03.05,0,.27,0,.33,0,.16,0,.32,0,.48-.02,1.31-.12,2.61-.3,3.91l2.95-.4c-.07-.45-.15-.9-.22-1.34-.06-.35-.4-.73-.69-.9-.32-.19-.8-.27-1.16-.15-.84.27-1.18,1.01-1.05,1.85.07.45.15.9.22,1.34.05.33.4.74.69.9s.62.22.96.18c.31-.04.64-.17.86-.41.29-.31.38-.64.44-1.06.19-1.46.3-2.92.3-4.39,0-.36-.02-.73-.13-1.08-.21-.65-.72-1.21-1.4-1.39-.86-.22-1.76.02-2.55.37-1.38.6-2.3,1.94-2.39,3.43s.85,3.01,2.3,3.48c.75.24,1.57.17,2.28-.13.84-.36,1.43-1,1.73-1.87.26-.74-.29-1.67-1.05-1.85-.84-.19-1.57.25-1.85,1.05h0Z"/>
    <path class="cls-7" d="M181.27,179.61l-1.85.22-.91.11c-.28.03-.56.09-.84.06l.4.05c-.07-.01-.13-.03-.19-.05l.36.15s-.08-.04-.11-.06l.3.23s-.09-.08-.13-.13l.23.3c-.05-.07-.09-.14-.12-.21l.15.36c-.04-.12-.07-.23-.09-.36l.05.4c-.02-.17-.02-.33,0-.5l-.05.4c.03-.18.08-.36.15-.53l-.15.36c.08-.19.19-.36.31-.53l-.23.3c.14-.18.3-.34.48-.48l-.3.23c.17-.12.34-.23.54-.31l-.36.15c.19-.08.39-.13.59-.16l-.4.05c.17-.02.33-.02.5,0l-.4-.05c.16.02.31.07.46.13l-.36-.15c.15.07.29.15.42.24l-.3-.23c.15.12.29.26.41.41l-.23-.3c.12.16.21.33.29.51l-.15-.36c.09.21.15.43.19.66l-.05-.4c.03.23.03.45,0,.68l.05-.4c-.03.19-.08.38-.15.56l.15-.36c-.07.15-.15.29-.25.42l.23-.3s-.06.08-.1.11c-.27.29-.44.66-.44,1.06,0,.37.16.81.44,1.06.57.53,1.56.62,2.12,0,.88-.97,1.16-2.31.81-3.56s-1.25-2.23-2.46-2.6c-1.31-.39-2.84.13-3.74,1.14-.45.51-.83,1.12-.95,1.8-.16.91-.05,1.87.59,2.58.42.47,1.06.7,1.69.69.36,0,.73-.08,1.09-.12l2.31-.28c.41-.05.76-.13,1.06-.44.26-.26.46-.69.44-1.06s-.14-.79-.44-1.06c-.27-.25-.68-.49-1.06-.44h0Z"/>
    <path class="cls-2" d="M214.48,233.11c-.37-12.91-.19-25.82.54-38.72l-2.95.4c4.58,13.82,9.15,27.64,13.73,41.46.6,1.82,3.5,1.04,2.89-.8-4.58-13.82-9.15-27.64-13.73-41.46-.54-1.62-2.85-1.31-2.95.4-.73,12.89-.91,25.81-.54,38.72.06,1.93,3.06,1.93,3,0h0Z"/>
    <path class="cls-2" d="M205.11,168.74c.1,12.66,2.33,25.56,4.56,38s5.49,23.8,11.15,34.72c3.56,6.86,13.92.8,10.36-6.06-5.17-9.97-7.97-20.84-9.94-31.85s-4.04-23.2-4.13-34.81c-.06-7.72-12.06-7.74-12,0h0Z"/>
    <path class="cls-2" d="M321.04,356.01c7.72,0,7.73-12,0-12s-7.73,12,0,12h0Z"/>
    <path class="cls-2" d="M272.1,337.49c-.2-.1-2.06-1.22-1.17-.56-.29-.24-.57-.49-.84-.75-.68-.77-.58-.5.29.83v3.19c-.47,1.25-1.26,2.13-2.37,2.63-.72.06-.73.09-.01.06l-.54-.07c.67.2.68.19.05-.04.89.42.12,0-.22-.37.33.61.37.61.09,0,.17.69.19.68.06-.03.25,3.12,2.58,6.15,6,6,3.04-.14,6.27-2.65,6-6-.31-3.83-1.83-7.08-5-9.36-2.69-1.93-6.39-2.66-9.62-1.76-4.06,1.14-7.42,5.05-5.85,9.46,1.11,3.15,4.15,5.68,7.07,7.13s6.63.84,8.21-2.15c1.43-2.71.85-6.72-2.15-8.21h0Z"/>
    <path class="cls-2" d="M201.26,199.04c1.55,5.84.14,11.66-3.23,16.61-3,4.4-7.35,7.57-8.36,13.1-1.85,10.07,12.74,18.07,4.12,27.38-3.64,3.93-5.25,9.57.01,13.13,4.57,3.09,12.83,2.45,18.05,2.24,10.41-.42,29.59-2.54,26.32-17.46-1.65-7.54-13.22-4.35-11.57,3.19.1.44-12.34,2.14-13.82,2.22-2.78.15-5.57.14-8.35-.05-.45-.03-3.47-.6-3.7-.34l1.54,5.56.94-.88c2.81-1.54,4.47-7.13,5-10.01.75-4.07.39-8.31-1.01-12.2-.64-1.76-1.46-3.42-2.47-5-.92-1.43-3.48-3.9-3.32-5.67.25-2.82,5.48-6.89,6.99-9.16,5.06-7.61,6.79-17.01,4.44-25.85-1.98-7.46-13.56-4.29-11.57,3.19h0Z"/>
    <path class="cls-2" d="M202.55,221c-1.64,7.45-1.58,14.93.44,22.31s5.31,15.74,9.75,21.63c4.11,5.47,11.8,3.11,12.76-3.54.5-3.46-.64-7.57-1.28-10.98-.83-4.44-1.93-8.82-3.18-13.16l-10.03,5.84c6.89,8.1,13.44,16.45,19.63,25.1,4.41,6.16,14.51.63,10.36-6.06-9.09-14.65-18.18-29.29-27.27-43.94l-9.42,7.27c6.08,7.25,12.14,14.88,16.79,23.14.91,1.61,1.39,3.99,2.43,5.42.33,3.24,1.84,2.53,4.55-2.11-1.21-.02-2.41-.04-3.62-.06-4.82-.08-9.65-.15-14.47-.23l5.79,7.6c-1.41,1.29-1.54,1.66-.39,1.08.72-.26,1.42-.55,2.12-.87.9-.39,1.81-.77,2.67-1.24,2.38-1.29,4.55-3.01,6.28-5.09,3.45-4.18,4.69-9.56,3.06-14.75-2.3-7.35-13.89-4.21-11.57,3.19,1.31,4.19-3.31,6.11-6.44,7.45-3.55,1.53-6.22,3.08-7.3,7.03s1.89,7.53,5.79,7.6c6.24.1,13.6,1.29,19.74.13,6.57-1.24,6.93-7.55,5.38-12.93-3.63-12.58-14.07-24.03-22.31-33.86-4.4-5.25-12.98,1.54-9.42,7.27,9.09,14.65,18.18,29.29,27.27,43.94l10.36-6.06c-6.79-9.47-13.95-18.65-21.51-27.52-3.97-4.67-11.62.33-10.03,5.84.99,3.41,1.88,6.84,2.61,10.31.33,1.58.64,3.16.91,4.75l.31,1.91c-.07,2.4.35,2.54,1.26.42l4.24-1.76h-.71c1.41.58,2.83,1.16,4.24,1.75-1.63-1.95-2.74-5.26-3.83-7.53-1.33-2.76-2.53-5.56-3.44-8.48-1.83-5.84-2.26-11.64-.95-17.63,1.65-7.53-9.91-10.74-11.57-3.19h0Z"/>
    <path class="cls-2" d="M215.49,199.77c-1.24-9.28-4.67-17.55-9.44-25.58s-9.67-15.71-17.54-21.24c-16.54-11.63-33.98-20.8-54.01-24.59-7.55-1.43-10.78,10.14-3.19,11.57,17.28,3.27,32.19,10.58,46.69,20.35,3.39,2.28,7.03,4.44,9.67,7.62s4.61,6.76,6.71,10.17c4.1,6.68,8.06,13.81,9.12,21.71.43,3.24,2.45,5.96,6,6,2.91.03,6.43-2.79,6-6h0Z"/>
    <path class="cls-2" d="M33.45,180.1c1.42-2.61,4.31-3.88,6.72-5.48,3.05-2.03,6-4.21,8.87-6.49,5.84-4.63,11.24-9.81,16.09-15.47s8.55-12.47,15.02-16.39c6.04-3.66,12.69-5.99,18.5-10.07s11.4-6.99,19.03-6.16,14.01,4.13,20.18,7.87c6.59,4,12.82,8.59,19.6,12.27s14.03,5.26,20.64,8.76c7.66,4.05,14.64,8.32,22.83,11.37,7.62,2.84,15.87,5.76,20.12,13.21,3.83,6.7,14.2.67,10.36-6.06-8.63-15.12-26.76-16.71-40.51-24.93-3.49-2.09-6.92-4.21-10.66-5.82-4.24-1.83-8.73-3.03-12.93-4.96-7.52-3.47-14.23-8.45-21.22-12.85-13.07-8.23-29.65-14.95-44.85-8.35-7.02,3.05-12.96,8.27-19.92,11.62-7.85,3.77-13.9,8.07-19.2,15.05-5.64,7.41-11.77,14.26-18.92,20.26-6.34,5.32-16.06,9.09-20.13,16.57-3.69,6.79,6.67,12.85,10.36,6.06h0Z"/>
    <path class="cls-2" d="M189.96,156.04c1.31,12.15,16.97,15.79,26.54,18.84,7.37,2.35,10.53-9.23,3.19-11.57-3.25-1.04-6.59-1.44-9.71-2.9-1.56-.73-3.07-1.6-4.5-2.55-.8-.53-3.71-3.62-3.51-1.82-.82-7.6-12.83-7.68-12,0h0Z"/>
    <path class="cls-2" d="M209.41,177.83l.23-.11-1.43.6c.47-.2.95-.33,1.45-.42l-1.6.21c.59-.08,1.16-.08,1.76,0l-1.6-.21.25.04c1.63.28,3.15.26,4.62-.6,1.24-.73,2.43-2.16,2.76-3.59.35-1.54.27-3.26-.6-4.62-.8-1.24-2.07-2.49-3.59-2.76-1.2-.21-2.39-.4-3.6-.25-1.8.22-3.05.57-4.71,1.35-1.29.6-2.39,2.26-2.76,3.59-.4,1.44-.22,3.35.6,4.62s2.06,2.41,3.59,2.76c1.65.38,3.09.11,4.62-.6h0Z"/>
    <path class="cls-2" d="M210.22,166.83c5.79,1.19,10.78,4.41,13.65,9.7,3.42,6.32,2.16,13.95,2.86,20.85,1.46,14.33,4.68,28.86,11.57,41.58,1.68,3.1,3.5,6.14,5.25,9.2,1.63,2.83,4.92,7.1,4.62,10.52-.24,2.85-2.55,6.28-3.71,8.86-1.4,3.09-2.46,5.95-5.38,7.83-5.45,3.51-10.92,6.24-15.64,10.85-2.29,2.24-4.35,4.73-6.22,7.34-1.48,2.06-3.17,6.47-5.86,7.1-7.52,1.76-4.34,13.33,3.19,11.57,7.82-1.83,10.31-9.74,15.13-15.18,2.9-3.27,6.23-6.06,9.98-8.3,3.09-1.84,6.5-3.22,9.16-5.7,2.84-2.64,4.42-5.98,5.99-9.45,1.71-3.78,3.94-7.67,4.92-11.72,2.01-8.28-3.67-16.04-7.6-22.82-4.31-7.44-8.01-14.7-9.94-23.11-2.12-9.24-3.61-18.22-3.93-27.7-.27-8.11-1.74-15.46-6.92-21.94-4.51-5.65-10.86-9.58-17.95-11.03-7.54-1.55-10.76,10.02-3.19,11.57h0Z"/>
    <path class="cls-2" d="M214.09,177.15c1.83,8.57,6.03,16.6,8.42,25.05,2.54,8.96,4.38,18.1,6.18,27.23,1.91,9.64,3.83,19.29,5.34,29,1.04,6.67,2.96,15.52,11.81,14.55,18.44-2.01-1.9-31.79-6.38-38.51-4.85-7.28-8.93-14.36-11.11-22.91-2.3-9-4.03-18.17-6-27.25-1.64-7.54-13.21-4.35-11.57,3.19,3.07,14.15,4.88,29.44,11.74,42.37,3.27,6.17,7.48,11.75,11.18,17.65,1.77,2.82,3.49,5.71,4.84,8.75.77,1.73,1.4,3.52,2,5.31l.59,1.76c.42,2.83,2.27,2.33,5.56-1.51.37-3.07-1.21-7.39-1.73-10.49-.65-3.89-1.35-7.78-2.09-11.66-1.43-7.54-2.89-15.07-4.46-22.58s-3.21-14.54-5.39-21.66-5.79-14.11-7.37-21.49-13.18-4.35-11.57,3.19h0Z"/>
    <path class="cls-2" d="M207.36,254.68c-1.48,7.09.06,14.53,5.22,19.85.7.72,2.23,2.48,3.28,2.74,1.04.95,1.19.72.44-.7-.59.64-1.24,1.2-1.97,1.68-2.91,2.28-6.28,4.53-9.66,6.07-2.84,1.3-6.31,1.68-8.57,4.03-1.32,1.37-2.05,3.06-2.38,4.9-.29,1.55.6,4.29.05,5.63.72-1.73-1.03-.29-2.08.08-2.47.88-5.07,1.5-7.59,2.25-1.4.41-4.54.7-5.69,1.69-1.39.21-1.36.44.1.69-.52-.57-1.02-1.15-1.49-1.76-5.53-5.95-12.04-4.17-18.7-1.25-8.19,3.59-17.3,3.01-26.05,2.65-17.63-.74-32.41-11.15-47.57-19.24-6.81-3.64-12.88,6.72-6.06,10.36,16.59,8.86,32.6,19.72,51.86,20.8,9.06.51,19.04,1.09,27.8-1.69,2.1-.67,4.05-1.65,6.07-2.51s2.58-1.67,4.15-.62c1.32.88,2.1,2.53,3.55,3.42,1.56.96,3.48,1.48,5.31,1.48,4.53,0,9.41-2.28,13.69-3.55,3.9-1.16,8.36-2.11,11.39-5.05,1.33-1.29,2.42-3.04,2.91-4.83.14-.52.86-5.4.17-5.62-2.19,1.21-2.45,1.51-.78.9,1.04-.3,2.06-.67,3.05-1.09,1.99-.8,3.91-1.74,5.77-2.82,6.22-3.63,15.47-8.91,14.67-17.34-.73-7.78-11.13-9.26-9.32-17.94,1.57-7.54-9.99-10.76-11.57-3.19h0Z"/>
    <path class="cls-2" d="M18.71,177.4c-4.73,7.39-5.54,14.63-5.5,23.19.02,3.8-1.93,7.03-2.2,10.81-.3,4.2,1.69,7.81,1.89,11.86l1.76-4.24c3.72.11,4.77-.34,3.15-1.34-.51-.44-1.08-.78-1.71-1.02-2.24-2-.63,1.14-1.16-1.46-.43-2.09,1.86-6.65,2.55-8.53,2.28-6.12,5.62-11.76,9.49-17,4.59-6.22-5.82-12.21-10.36-6.06-5.8,7.85-10.28,16.82-12.75,26.3-1.06,4.05-1.62,8.58.56,12.39,1.81,3.17,6.44,5.88,9.79,7.21,3.55,1.41,7.99.31,9.87-3.23,2.5-4.71-1.63-9.29-1.17-14.06.22-2.27,1.47-4.43,1.9-6.67s.41-4.42.33-6.67c-.21-5.76.79-10.52,3.93-15.43,4.18-6.52-6.21-12.55-10.36-6.06h0Z"/>
    <path class="cls-2" d="M5.94,220.28c4.32,9.29,11.27,17.01,14.87,26.72s3.16,19.75,6.47,29.25c5.57,15.93,17.04,38.28,36.53,38.66,10.01.19,18.16-6.99,28.36-4.68,10.07,2.28,18.36,9.19,27.2,14.13s18.21,8.34,28.26,6.81c4.8-.73,9.29-2.77,14.1-1.1s9.16,4.03,14.13,5.26c4.56,1.13,9.93,2.43,14.28-.04,4.63-2.63,8.17-7.84,11.74-11.7,8.73-9.45,17.47-18.9,26.2-28.36,5.23-5.67-3.23-14.17-8.49-8.49-6.99,7.56-13.97,15.12-20.96,22.68-3.27,3.54-6.55,7.09-9.82,10.63-1.16,1.25-3.02,4.06-4.64,4.61s-5.08-.88-6.75-1.34c-4.09-1.13-7.79-3-11.73-4.52-4.71-1.81-9.31-1.69-14.2-.71-4.15.83-8.01,1.92-12.29,1.26-4.9-.76-9.48-2.97-13.77-5.37-15.86-8.85-30.87-20.91-50-14.21-4.2,1.47-8.51,3.7-13.08,2.97-4.18-.66-7.84-3.46-10.6-6.53-5.77-6.41-10.49-15.81-13.17-23.97-3.33-10.12-3.06-20.87-7.13-30.85s-10.75-17.73-15.15-27.18c-3.25-7-13.6-.91-10.36,6.06h0Z"/>
    <path class="cls-2" d="M236.17,264.43c.14,2.85-1.7,4.06-2.12,6.54-1.71,1.87-1.07,2.2,1.92,1,.03-1.14.14-2.26.32-3.38.85-6.67-10.51-8.21-11.79-1.6-1,5.23-.64,10.33-.99,15.59-.27,4.01-1.37,8.73-6.11,8.78s-8.8-1.55-13.45-.29c-4.89,1.33-7.05,4.83-9.72,8.75s-6.95,6.62-11.12,8.79c-5,2.6-10.44,2.2-15.96,2.43-6.27.26-12.53.52-18.8.78-2.97.12-5.94.25-8.9.37-1.41.06-5.86,1.01-6.96.09l-2.65,10.03c7.15-1.07,14.3-2.14,21.46-3.22,6.27-.94,13.86-3.19,20.17-1.73,5.71,1.32,5.51,8.35,11.43,10.02,4.83,1.36,9.83-.73,12.31-5.04,3.85-6.71-6.51-12.76-10.36-6.06,1.07-1.87,1.76.65,1.69-1.48-.03-1.06-1.35-2.42-2.03-3.22-1.69-1.97-3.81-3.44-6.16-4.5-4.67-2.1-9.85-2.32-14.87-1.78-12.31,1.32-24.58,3.59-36.83,5.43-4.35.65-5.9,7.3-2.65,10.03,4.95,4.15,10.32,3.64,16.43,3.39,7.25-.3,14.51-.6,21.76-.9,6.69-.28,14.2.31,20.72-1.51,5.56-1.55,11.06-5.22,15.47-8.86,2.23-1.84,4.13-3.95,5.76-6.34,1.55-2.26,1.86-4,4.82-4.07,5.79-.13,11.02,2.14,16.59-.87,12.16-6.57,8.38-20.38,10.51-31.42l-11.79-1.6c-.96,7.55,3.15,17.73,12.62,15.26,7.22-1.88,11.61-12.68,11.27-19.42-.39-7.68-12.39-7.73-12,0h0Z"/>
    <path class="cls-2" d="M34.42,184.96l1.9,3.36-10.97,1.43c1.97,3.77-1.1,9.42-1.93,13.24-1.13,5.24-1.42,10.65-1.15,15.99.53,10.41,1.38,22.66,6.34,31.98s11.56,16.47,15.54,25.99,4.33,20.94,8.83,30.67c2.42,5.22,11.94,2.83,11.18-3.03-1.23-9.52-6.75-15.7-12.04-23.3-6.11-8.76-9.11-19.68-11.56-29.97-5.05-21.3-5.84-43.29-6.66-65.07-.29-7.7-12.29-7.74-12,0,.82,21.66,1.72,43.49,6.3,64.75,2.19,10.18,5.17,20.46,9.73,29.85,3.8,7.82,13.09,14.89,14.23,23.75l11.18-3.03c-2.23-4.82-2.54-10.32-3.69-15.45s-2.81-9.81-4.82-14.51-4.43-9.35-7.2-13.72-6.27-8.37-8.66-12.98-2.99-10.51-3.7-15.82-1.28-10.95-1.05-16.45c.42-9.94,6.52-19.3,1.48-28.94-2.28-4.36-10.04-3.66-10.97,1.43-1.11,6.11,2.84,12.47,9.67,11.83,7.62-.72,7.7-12.73,0-12h0Z"/>
    <path class="cls-2" d="M69.06,200.66c1.38-4.65,2.24-9.38,3.97-13.93,1.84-4.85,4.34-9.44,6.98-13.9,2.48-4.2,5.13-8.3,7.85-12.35s6.02-5.7,10.5-7.53c8.68-3.54,16.13-9.17,24.57-13.13,9.35-4.38,19.86-4.28,29.03.5,6.84,3.56,12.92-6.79,6.06-10.36-10.33-5.37-22.36-7-33.6-3.54s-20.03,11.15-30.65,15.52c-4.67,1.92-9.31,3.8-12.74,7.67-3.74,4.22-6.64,9.44-9.59,14.22-3.16,5.11-6.07,10.36-8.43,15.9s-3.73,11.73-5.51,17.74c-2.2,7.42,9.38,10.59,11.57,3.19h0Z"/>
    <path class="cls-2" d="M162.55,138.45c-9.81-4.48-20.25-5.78-30.96-5.01-5.24.38-10.98.77-15.99,2.43s-8.55,4.5-12.37,7.64c-8.06,6.61-16.64,12.23-23.21,20.47s-11.25,17.47-14.02,27.58c-2.04,7.46,9.53,10.64,11.57,3.19,2.28-8.32,6.03-16.15,11.43-22.91s12.24-11.49,18.94-16.77c3.19-2.51,6.27-5.74,10.06-7.35s8-1.8,11.89-2.14c8.97-.8,18.28-.57,26.6,3.23,6.97,3.19,13.08-7.15,6.06-10.36h0Z"/>
    <path class="cls-2" d="M64.9,197.86c-.28,9.49,2.13,19.02,8.5,26.27,2.88,3.28,6.56,5.88,10.61,7.49,2.29.91,4.61,1.42,7.07,1.65,1.48.14,6.07-.43,6.91.89.97,1.52-4.62,7.58-5.55,9.4s-1.67,3.75-3.02,5.23-2.86,2.26-3.71,4.27c-1.93,4.58-.22,11.69-.32,16.61-.12,6.31-.68,12.59-1.69,18.82-1.22,7.55,10.34,10.81,11.57,3.19.97-6,1.71-12.03,1.99-18.11s-.59-12.23-.07-18.21l-1.76,4.24c2.19-2.82,4.71-4.82,6.43-8.11,1.55-2.97,3.15-5.44,5.21-8.09,4.44-5.73,4.19-13.77-1.54-18.64-6.01-5.12-14.37-1.56-20.62-6.22s-8.25-13.06-8.02-20.7-11.77-7.72-12,0h0Z"/>
    <path class="cls-2" d="M102.33,307.48l2.34.94c4.91,1.96,9.45-4.66,6.78-8.81-2.28-3.54-5.33-6.04-8.12-9.12-2.97-3.27-4.58-7.21-5.68-11.45-1.99-7.63-1.97-15.57,2.99-22.02,1.99-2.59.38-6.69-2.15-8.21-3.07-1.84-6.25-.4-8.21,2.15-6.21,8.08-6.76,18.71-4.87,28.38.95,4.84,2.6,9.77,5.14,14.02,2.85,4.75,7.59,7.74,10.53,12.31l6.78-8.81-2.34-.94c-7.17-2.87-10.28,8.73-3.19,11.57h0Z"/>
    <path class="cls-2" d="M87.07,235.31c-.07,4.99-4.84,8.76-7.52,12.59-2.88,4.12-4.12,8.61-4.28,13.6-.2,6.07.01,12.18.03,18.26.01,3.32.02,6.65.03,9.97,0,1.33,0,2.66.01,3.99,0,1,0,1.99,0,2.99-.07,1.48.04,1.33.34-.45l3.59-2.76c-2.42.93-10-.61-13.5-.82-7.71-.48-7.68,11.52,0,12,5.73.36,17.34,3.6,20.69-3.07,1.72-3.43.88-8.21.87-11.88-.01-4.32-.03-8.64-.04-12.97-.02-7.28-1.81-16.54,2.62-22.8s9.04-10.74,9.15-18.64-11.88-7.73-12,0h0Z"/>
    <path class="cls-2" d="M129.6,119.44c-12.29.65-26.73,1.69-36.81,9.43-10.7,8.21-18.89,19.58-27.51,29.83-5.06,6.02,2.45,13.19,8.49,8.49,3.66-2.85,7.32-5.71,10.98-8.56,6.08-4.74-2.46-13.18-8.49-8.49-3.66,2.85-7.32,5.71-10.98,8.56l8.49,8.49c7.61-9.06,14.86-18.88,23.76-26.75s21.07-8.42,32.08-9c7.68-.4,7.73-12.41,0-12h0Z"/>
    <path class="cls-2" d="M120.99,119.43c-1.62,1.31-4.21,1.86-6.1,2.72-2.56,1.17-5.1,2.4-7.61,3.7-4.44,2.3-8.65,4.82-12.24,8.34l9.42,7.27c3.11-4.43,6.67-8.39,10.63-12.08,5.66-5.28-2.84-13.75-8.49-8.49-4.71,4.39-8.81,9.24-12.5,14.51-3.99,5.69,4.68,11.92,9.42,7.27,7.3-7.16,18.2-8.51,25.94-14.76,6.01-4.86-2.53-13.3-8.49-8.49h0Z"/>
    <path class="cls-2" d="M117.76,116.8l-1.12,1.13c-.59.54-1,1.19-1.24,1.93-.38.72-.55,1.49-.52,2.31-.03.83.14,1.6.52,2.31.24.74.66,1.39,1.24,1.93l1.21.94c.94.54,1.95.82,3.03.82l1.6-.21c1.02-.29,1.9-.8,2.65-1.54l1.12-1.13c.59-.54,1-1.19,1.24-1.93.38-.72.55-1.49.52-2.31.03-.83-.14-1.6-.52-2.31-.24-.74-.66-1.39-1.24-1.93l-1.21-.94c-.94-.54-1.95-.82-3.03-.82l-1.6.21c-1.02.29-1.9.8-2.65,1.54h0Z"/>
    <path class="cls-2" d="M109.27,116.99c-1.92-.14-4,.15-5.79.87-1.51.61-2.73,1.3-3.59,2.76-.75,1.29-1.07,3.18-.6,4.62s1.37,2.85,2.76,3.59,3.16,1.2,4.62.6c.77-.31,1.54-.52,2.36-.63l-1.6.21c.62-.06,1.22-.07,1.84-.03,1.47.11,3.23-.75,4.24-1.76s1.82-2.75,1.76-4.24-.58-3.16-1.76-4.24-2.58-1.63-4.24-1.76h0Z"/>
    <path class="cls-2" d="M93.91,123.22c-15.61,6.31-27.68,20.63-39.68,31.99-5.86,5.55-11.93,11.25-15.98,18.33s-5.46,15.49-5.52,23.79c-.07,9.18.49,18.32.27,27.51s-1.54,18.17.03,26.91c1.46,8.11,7.44,14.56,11.17,21.72,4.02,7.71,6.79,15.9,8.67,24.38,1.06,4.82,8.76,6.09,10.97,1.43,2.43-5.14,1.95-9.81.43-15.16-1.72-6.04-3.44-12.06-4.89-18.17-2.88-12.08-5.47-24.5-6.37-36.9s2.32-24.46,5.06-36.64c2.19-9.73,3.21-21.93,11.16-28.89,5.82-5.1-2.69-13.56-8.49-8.49-7.87,6.89-10.4,17.11-12.61,26.91-2.76,12.23-6.5,24.7-7.25,37.26s1.87,25.65,4.32,37.98c1.22,6.15,2.62,12.27,4.2,18.35.79,3.04,1.62,6.06,2.5,9.07.62,2.11,2.62,6.42,1.58,8.62,3.66.48,7.31.96,10.97,1.43-1.6-7.25-3.91-14.25-6.91-21.05s-7.4-12.79-10.95-19.37c-3.72-6.89-2-15.93-1.75-23.44.28-8.79.34-17.54.04-26.33-.26-7.6-.65-15.68,2.64-22.76,2.96-6.39,8.22-11.37,13.24-16.15,5.96-5.68,11.98-11.28,18-16.89,5.57-5.19,11.17-10.98,18.35-13.88s3.98-14.47-3.19-11.57h0Z"/>
    <path class="cls-2" d="M36.14,185.19c7.72,0,7.73-12,0-12s-7.73,12,0,12h0Z"/>
    <path class="cls-2" d="M45.26,190.85l.52.17-3.59-2.76c-.26-1.85-.52-2.05-.78-.62-.22.61-.46,1.22-.72,1.82-.36.92-.74,1.83-1.04,2.78-.77,2.42-1.13,4.91-1.43,7.44-.35,2.92,2.55,5.58,5.2,5.89,3.2.38,5.41-1.45,6.58-4.3.17-.41.54-.85.83-1.19,2.13-2.44,2.4-6.08,0-8.49-2.17-2.17-6.35-2.45-8.49,0-1.8,2.06-2.88,3.97-3.92,6.48l11.79,1.6c.78-6.56,8.28-17.16-1.76-20.4-7.37-2.38-10.52,9.21-3.19,11.57h0Z"/>
    <path class="cls-2" d="M69.15,154.92c-.25,5.51-5.94,10.74-8.19,15.65-2.66,5.79-4.28,11.86-5.23,18.15-1.99,13.16-2.16,26.63-2.91,39.9-.39,6.93-.64,13.61.4,20.5,1.09,7.24,2.66,14.43,4.04,21.62s2.63,13.76,3.94,20.64c.53,2.76.79,5.87,2.99,7.9,2.58,2.38,6.26,1.98,9.49,1.93,7.72-.11,7.74-12.11,0-12-1.22.02-2.43.04-3.65.04l3.59,2.76c-1.2-1.56-1.19-5.64-1.56-7.58-.6-3.13-1.2-6.25-1.79-9.38-1.2-6.25-2.39-12.51-3.59-18.76s-2.49-12.67-2.31-19.21.68-12.52,1.03-18.77c.63-11.22.61-22.8,3.33-33.76,1.35-5.45,3.49-10.27,6.6-14.94s5.56-9,5.81-14.68c.35-7.72-11.65-7.7-12,0h0Z"/>
    <path class="cls-2" d="M58.04,209.02c.9,27.21,1.99,54.62,9,81.07,1.98,7.46,13.55,4.29,11.57-3.19-6.74-25.44-7.71-51.71-8.57-77.88-.25-7.7-12.26-7.74-12,0h0Z"/>
    <path class="cls-2" d="M44.45,210.38c-2.2-.9-1.6-1.63-1.45.71.07,1.18.62,2.52.9,3.67.68,2.75,1.35,5.51,2.03,8.26,1.28,5.2,2.55,10.4,3.83,15.6,1.84,7.5,13.42,4.32,11.57-3.19s-3.61-14.68-5.41-22.02c-1.49-6.07-1.93-12-8.28-14.6-7.14-2.92-10.25,8.68-3.19,11.57h0Z"/>
    <path class="cls-2" d="M63.54,226.01c2.23,7.52,3.87,15.19,4.56,23.02.63,7.17-.19,14.56,1.48,21.59,1.42,5.99,9.86,5.41,11.57,0,3.07-9.7,6.35-19.82,7.81-29.92.55-3.84.2-7.65-2.13-10.87-1.23-1.71-2.84-3-4.81-3.76-.86-.33-1.68-.58-2.61-.65-1.2-.1-1.75-.71-.57.31-5.81-5.03-14.34,3.42-8.49,8.49,1.09.94,2.08,1.71,3.43,2.22.7.26,3.23.27,3.69.74-.57-.58-.26,1.23-.32,1.83-.18,2-.89,4.06-1.35,6.01-1.79,7.55-3.88,15.02-6.23,22.41h11.57c-1.67-7.02-.57-14.9-1.43-22.1-.91-7.64-2.41-15.13-4.6-22.51s-13.78-4.24-11.57,3.19h0Z"/>
    <path class="cls-5" d="M444.33,263.86c.18.17.23.35.27.57.07.49.02,1.02,0,1.52-.05,1.22-.1,2.44-.16,3.67s-.11,2.43-.15,3.65.12,2.41.95,3.33c1.39,1.54,3.94,1.51,5.44.17,1.66-1.49,1.71-4.04.65-5.88-.65-1.13-1.45-2.2-2.18-3.28-.82-1.22-1.64-2.44-2.45-3.66-.57-.84-2.09-1.1-2.59,0-.88,1.94-1.44,3.93-1.66,6.05-.2,1.9-.29,4.35,1.29,5.73.82.72,1.93,1.04,2.99.69.87-.28,1.67-.95,2.3-1.6,1.43-1.46,1.79-3.98-.17-5.18-1.65-1.01-3.16,1.59-1.51,2.59-.21-.13.03-.19-.07,0,0,0,0-.11,0-.13,0,0-.07.24-.02.14-.19.43-.64.77-1.01,1.05-.11.08-.29.26-.41.27.01,0,.19.08-.04-.02-.29-.12-.36-.63-.4-.9-.32-2.35.33-5.04,1.3-7.17h-2.59c1.51,2.25,3.11,4.45,4.53,6.76.44.72.58,1.41.24,2.03-.28.51-.73.67-1.2.46-.15-.07-.28-.13-.34-.32-.15-.45-.05-1.02-.03-1.49.06-1.35.11-2.7.17-4.04s.16-2.57.15-3.85c0-1.21-.28-2.4-1.17-3.26-1.38-1.35-3.51.77-2.12,2.12h0Z"/>
    <path class="cls-5" d="M379.35,3.94c-3.12.45-6.48.62-9.5,1.59-2.86.92-4.79,3.08-7.3,4.59s-5.4,2.2-7.93,3.67-4.72,3.33-7.47,4.22l1.16,2.74c.29-.22.58-.44.87-.67,1.51-1.16.02-3.76-1.51-2.59-.29.22-.58.44-.87.67-1.23.94-.61,3.32,1.16,2.74,2.76-.9,5.04-2.6,7.49-4.1s5.3-2.32,7.89-3.67,4.53-3.78,7.34-4.7c3-.99,6.38-1.14,9.5-1.59,1.9-.27,1.09-3.17-.8-2.89h0Z"/>
    <path class="cls-5" d="M445.24,65.14c-11.21-11.13-22.24-22.49-33.76-33.3-5.19-4.87-10.56-9.53-16.21-13.86-5.33-4.08-10.97-8.48-17.56-10.27-13.16-3.56-27.87,2.59-38.82,9.65-11.37,7.32-20.59,18.24-22.98,31.84-.66,3.73,1.59,7.66,5.79,7.6,10.15-.15,18.47-9.07,26.1-14.85,3.99-3.03,7.93-6.17,12.02-9.07,3.66-2.6,8.36-5.98,13.14-5.26,7.55,1.14,10.81-10.42,3.19-11.57-10.5-1.58-18.51,3.48-26.59,9.6-4.44,3.36-8.87,6.73-13.3,10.09-3.89,2.95-9.42,8.98-14.56,9.06l5.79,7.6c2.09-11.89,10.16-20.57,20.39-26.44,9.66-5.55,21.83-10.5,32.18-4.08s19.44,14.98,28.16,23.45c9.61,9.34,19.04,18.87,28.55,28.31,5.48,5.45,13.97-3.03,8.49-8.49h0Z"/>
    <path class="cls-5" d="M353.18,21.77c-4.71,2.08-9.35,4.31-13.92,6.69-6.85,3.57-.79,13.93,6.06,10.36,4.57-2.38,9.21-4.61,13.92-6.69,2.96-1.31,3.66-5.64,2.15-8.21-1.79-3.06-5.23-3.47-8.21-2.15h0Z"/>
    <path class="cls-5" d="M339.95,29.33h-.64c-.83-.03-1.6.14-2.31.52-.74.24-1.39.66-1.93,1.24-.59.54-1,1.19-1.24,1.93-.38.72-.55,1.49-.52,2.31l.21,1.6c.29,1.02.8,1.9,1.54,2.65l1.21.94c.94.54,1.95.82,3.03.82h.64c.83.03,1.6-.14,2.31-.52.74-.24,1.39-.66,1.93-1.24.59-.54,1-1.19,1.24-1.93.38-.72.55-1.49.52-2.31l-.21-1.6c-.29-1.02-.8-1.9-1.54-2.65l-1.21-.94c-.94-.54-1.95-.82-3.03-.82h0Z"/>
    <path class="cls-5" d="M380.78,16c4.45-2.11,9.49-.85,13.94.57,5.06,1.62,10.21,3.49,14.98,5.84s8.97,5.35,13.27,8.32,9.21,5.85,13.11,9.54c14.79,14.01,21.18,37.33,20.97,57.09-.08,7.72,11.92,7.73,12,0,.13-12.39-1.94-24.86-6.47-36.42-4.45-11.35-10.82-23.51-20.48-31.29s-20.43-15.33-31.81-20.04S386.68-.03,374.73,5.64c-6.97,3.31-.89,13.65,6.06,10.36h0Z"/>
    <path class="cls-5" d="M378.78,19.82c4.93,10.52,7.95,21.81,12.46,32.51s11.98,19.9,18.23,30.01c12.97,21,23.34,43.8,31.7,66.99,2.6,7.21,14.2,4.1,11.57-3.19-8.51-23.62-19-46.7-31.93-68.25-6.16-10.27-13.99-19.2-18.66-30.35-4.67-11.14-7.86-22.82-13-33.78-3.27-6.99-13.62-.9-10.36,6.06h0Z"/>
    <path class="cls-5" d="M391.16,33.55c9.27,16.84,21.68,31.58,32.06,47.7,5.16,8.01,9.79,16.37,13.04,25.34,3.74,10.32,6.1,21.05,8.45,31.75,1.58,7.19,11,4.57,11.79-1.6l.21-1.68c.97-7.64-11.04-7.57-12,0l-.21,1.68,11.79-1.6c-4.58-20.81-10.31-40.39-21.79-58.54-10.55-16.68-23.42-31.78-32.97-49.11-3.73-6.77-14.09-.72-10.36,6.06h0Z"/>
    <path class="cls-5" d="M401.94,59.74c13.87,16.08,24.75,34.59,32.03,54.54,2.63,7.2,14.23,4.09,11.57-3.19-8.02-22-19.82-42.1-35.11-59.83-5.05-5.86-13.51,2.66-8.49,8.49h0Z"/>
    <path class="cls-5" d="M390.07,18.21c7.37,7.26,16.24,12.69,23.41,20.21,7.17,7.52,13.3,16.03,19.26,24.53s8.75,17.26,10.22,27.7c.73,5.18,1.37,10.36,2.62,15.46s3.1,10.55,3.45,16.07c.49,7.67,12.5,7.72,12,0-.72-11.14-4.72-21.91-6.26-32.99s-4.15-21.3-10.64-30.81c-6.08-8.92-12.57-17.8-19.77-25.84-7.76-8.67-17.57-14.69-25.8-22.79-5.5-5.43-14,3.05-8.49,8.49h0Z"/>
    <path class="cls-5" d="M413.35,48.51c11.04,14.51,20.17,30.25,27.28,47.03,1.27,3.01,5.65,3.61,8.21,2.15,3.11-1.77,3.41-5.24,2.15-8.21-7.11-16.79-16.24-32.53-27.28-47.03-4.62-6.07-15.04-.09-10.36,6.06h0Z"/>
    <path class="cls-5" d="M421.07,30.34c15.2,12.75,26.62,29.5,32.31,48.57,3.09,10.36,4.4,20.64,2.07,31.3s-6.67,20.89-12.54,30.23c-2.56,4.07.84,8.76,5.18,9.03l-3.05-1.42-.78,1.71c-.7.88-1.1,2.38-1.57,3.41-1.03,2.23-2.07,4.46-3.07,6.7-1.97,4.43-3.74,8.88-4,13.78-.23,4.42,1.17,8.44,2.64,12.53,1.12,3.11,2.86,7.04-.23,9.44-6.09,4.73,2.46,13.17,8.49,8.49,4.39-3.41,5.69-9.17,5.03-14.48-.85-6.87-5.31-12.34-3.17-19.44s6.59-12.94,8.53-19.84c1.83-6.53-2.01-12.47-8.81-12.88l5.18,9.03c6.37-10.14,11.2-21.38,13.75-33.1,2.66-12.24,1.74-24.15-1.63-36.15-6.04-21.53-18.73-41.04-35.84-55.4-5.88-4.93-14.41,3.51-8.49,8.49h0Z"/>
    <path class="cls-5" d="M422.61,43.28c8.28,6.41,15.84,15.45,21.74,24.06,6.76,9.88,8.79,19.94,9.52,31.72.48,7.67,12.48,7.73,12,0-.82-13.15-2.91-25.18-10.23-36.39-6.51-9.97-15.1-20.56-24.54-27.88-2.58-2-5.96-2.47-8.49,0-2.09,2.05-2.56,6.5,0,8.49h0Z"/>
    <path class="cls-5" d="M438.34,195.43l-.11.98.82-3.03c-2.04,3.88-3.22,7.57-3.97,11.9-.86,4.99.41,8.4,2.87,12.64,3.88,6.67,14.26.64,10.36-6.06-.6-1.03-1.53-2.03-1.65-3.23-.12-1.27.53-2.87.81-4.1.73-3.24,2.49-5.79,2.86-9.11s-3.02-6-6-6c-3.55,0-5.63,2.77-6,6h0Z"/>
    <path class="cls-5" d="M447.18,240.1c.08-5.16-.09-10.31-.52-15.45-.27-3.23-2.57-6-6-6-3.04,0-6.27,2.75-6,6,.42,5.14.6,10.29.52,15.45-.12,7.72,11.88,7.73,12,0h0Z"/>
    <path class="cls-5" d="M431.93,125.3c4.54,10.75,4.41,24.17,5.69,35.63.85,7.59,12.86,7.68,12,0-1.55-13.83-1.86-28.74-7.33-41.68-1.27-3.01-5.66-3.61-8.21-2.15-3.11,1.77-3.41,5.24-2.15,8.21h0Z"/>
    <path class="cls-5" d="M444,158.58c-.93-.31-.06-.61-.4.16-.27.61-.07,2.61-.16,3.32-.25,2.1-.69,3.64-1.96,5.33-1.95,2.59-.41,6.71,2.15,8.21,3.07,1.8,6.25.44,8.21-2.15,5.82-7.73,5.84-22.91-4.65-26.43-7.34-2.47-10.48,9.12-3.19,11.57h0Z"/>
    <path class="cls-5" d="M388.21,21.63c-1.04,6.66-1.94,13.26-1.15,20s2.7,13.2,5.08,19.55,4.7,12.66,7.83,18.55c2.85,5.36,6.73,10.05,10.46,14.8,3.45,4.4,6.94,9.03,8.69,14.4s3.04,10.29,6.93,14.66,4.71,10.71,5.76,16.54c1.33,7.42,1.94,14.91,2.1,22.44s12.16,7.74,12,0c-.26-12.86-1.09-27.75-6.1-39.75-1.99-4.78-6.31-7.76-7.84-12.72-1.69-5.46-3.44-10.55-6.61-15.38-2.98-4.55-6.58-8.65-9.83-13.01-3.88-5.2-6.67-10.76-9.09-16.76-2.56-6.35-5.11-12.76-6.63-19.46s-1.13-13.7-.04-20.68c1.19-7.55-10.38-10.81-11.57-3.19h0Z"/>
    <path class="cls-6" d="M398.03,328.5c8.69-1.46,17.34-3.08,25.97-4.84,7.56-1.54,4.36-13.11-3.19-11.57-8.63,1.76-17.29,3.38-25.97,4.84-7.6,1.28-4.38,12.85,3.19,11.57h0Z"/>
    <path class="cls-6" d="M465.08,286.47c3.9-7.74,4.2-16.71-.2-24.36-.94-1.64-2-2.59-1.94-4.37.08-2.13,1.22-4.51,1.44-6.73.49-5.06-.4-10.11-1.26-15.08-1.32-7.6-12.88-4.37-11.57,3.19s5.85,14.09,8.92,20.73c3.18,6.88,6.14,13.85,8.9,20.91s5.56,14.49,7.91,21.86c2.19,6.88,2.26,12.75-1.11,19.25-5.82,11.22-15.75,21.77-25.18,30.08-5.02,4.42-10.41,7.39-16.29,10.44-3.86,2-3.77,4.09-5.35,7.79-1.34,3.12-3.34,5.56-5.83,7.84l10.03,5.84c3.35-9.92,16.49-9.9,19.17-20.39,1.92-7.48-9.65-10.68-11.57-3.19-.86,3.34-7.71,5.35-10.32,7.4-4.3,3.38-7.11,7.84-8.85,12.98-2.02,5.98,5.87,9.64,10.03,5.84,4.96-4.54,8.35-10.24,10.08-16.73l-4.19,4.19c12.15-4.96,22.05-13.09,30.83-22.73,8.53-9.37,18.66-20.19,21.51-32.92,3.07-13.71-4.4-28.25-9.29-40.75-2.68-6.86-5.53-13.66-8.56-20.38s-7.99-13.93-9.26-21.26l-11.57,3.19c.73,4.2,1.56,8.69.61,12.93-.79,3.52-2.11,6.29-1,9.98.91,3.03,3.29,5.23,4.34,8.18,1.2,3.37.83,7.04-.76,10.2-3.47,6.88,6.88,12.96,10.36,6.06h0Z"/>
    <path class="cls-6" d="M459.44,277.42c-.56,9-1.12,17.99-1.68,26.99-.51,8.21.02,17.35-2.13,25.32-1.76,6.5-6.49,11.67-10.7,16.72-2.2,2.64-4.4,5.3-6.37,8.12-1.36,1.94-2.95,6.36-4.13,7.41l5.84-1.54-.65-.12,4.19,4.19-.17-.55c-2.21-7.38-13.8-4.24-11.57,3.19l.17.55c.56,1.88,2.15,3.82,4.19,4.19,4.09.74,6.65-.8,8.53-4.38s3.68-6.67,6.12-9.73c5.15-6.44,11.04-12.43,14.38-20.09,3.75-8.58,3.38-18.44,3.95-27.62.68-10.88,1.35-21.76,2.03-32.64.48-7.71-11.52-7.68-12,0h0Z"/>
    <path class="cls-6" d="M469.18,280.83c-.35,9.26,2.09,17.98-.17,27.18-2.14,8.73-6.36,16.69-10.55,24.58l10.97,4.62c3.75-10.28,7.4-20.78,7.81-31.83s-3.19-21.01-7.46-30.84c-1.99-4.59-8.02-3.15-10.36,0-7.96,10.73-15.54,21.72-22.74,32.97-4.17,6.53,6.21,12.55,10.36,6.06,7.2-11.26,14.78-22.25,22.74-32.97h-10.36c3.69,8.5,6.43,17.23,5.72,26.6-.71,9.25-4.13,18.18-7.27,26.82-2.33,6.4,7.8,10.59,10.97,4.62,4.64-8.75,9.38-17.76,11.76-27.44,1.09-4.45,1.73-9.12,1.63-13.71-.11-5.59-1.25-11.06-1.04-16.66.29-7.72-11.71-7.71-12,0h0Z"/>
    <path class="cls-6" d="M398.71,222.48c-1.09,4.62-1.63,9.97-3.39,14.37-1.39,3.48-6.4,5.7-9.43,7.81l8.21,8.21c1.22-2.73,2.73-5.19,5.03-7.17,2.02-1.74,4.05-2.74,5.32-5.22,2.8-5.46,3.08-13.04,1.91-18.9-1.1-5.54-8.23-5.25-10.97-1.43-8.03,11.19-16.1,22.78-19.94,36.18-4.21,14.69-1.41,29.47,2.69,43.84,2.12,7.41,13.7,4.26,11.57-3.19-3.69-12.94-6.39-25.89-2.2-39.06,3.71-11.67,11.19-21.86,18.25-31.71l-10.97-1.43c.52,2.59.14,5.13-.42,7.68-.68,3.12.11,1.64-2.59,3.82-3.49,2.82-6.21,6.45-8.05,10.54-2.18,4.87,2.74,12.02,8.21,8.21,4.3-2.99,10.41-5.92,13.15-10.52,3.18-5.34,3.78-12.84,5.19-18.84,1.77-7.51-9.8-10.72-11.57-3.19h0Z"/>
    <path class="cls-6" d="M378.02,254.34c-2.66,6.76-5.27,13.56-6.39,20.77-1.11,7.11-.3,13.87,1.03,20.9s2.71,14.04-.96,20.89c-3.43,6.4-7.37,12.58-11.01,18.87-7.39,12.75-15.1,25.34-21.15,38.81-5.98,13.32-10.85,27.09-15.66,40.87-2.55,7.31,9.04,10.45,11.57,3.19,4.87-13.94,9.71-27.94,15.98-41.33s14.16-26.05,21.58-38.85c3.56-6.15,7.76-12.2,10.65-18.7s2.87-13.09,1.84-19.94-3.01-13.46-2.38-20.42c.68-7.57,3.72-14.85,6.48-21.85,2.83-7.19-8.77-10.3-11.57-3.19h0Z"/>
    <path class="cls-6" d="M383.08,311.98c-4.92,8.24-5.24,18.05-9.66,26.43-4.83,9.16-11.51,17.39-16.91,26.23-5.44,8.9-10.44,18.08-14.67,27.61-1.98,4.45-4.28,9.05-5.16,13.86-.46,2.5-.44,4.91.04,7.4.26,1.35.72,2.65,1.11,3.96.13.42.6,3.22.83,1.83l4.19-4.19c-1.64.45-4.2-.84-5.69-1.4-7.23-2.73-10.36,8.87-3.19,11.57,3.75,1.41,8.12,2.5,12.07,1.4,1.86-.51,3.86-2.19,4.19-4.19.8-4.76-2.01-8.56-1.9-13.12s3.39-10.13,5.34-14.32c4.28-9.19,9.24-18.05,14.6-26.65,5.01-8.03,11.09-15.57,15.5-23.94,4.42-8.39,4.82-18.33,9.66-26.43,3.97-6.65-6.4-12.69-10.36-6.06h0Z"/>
    <path class="cls-6" d="M438.44,379.62c-2.84,7.21-7.24,13.72-12.82,19.09-5.17,4.98-11.09,8.52-13.17,15.84-.74,2.6.5,5.39,2.76,6.78,1.46.9,2.49,1.35,4.18,1.65,7.55,1.33,10.79-10.23,3.19-11.57l-1.31-.44,2.76,6.78c.88-3.1,3.68-4.98,6.05-6.98,3.01-2.54,5.84-5.19,8.37-8.22,5-5.98,8.71-12.49,11.56-19.73s-8.76-10.3-11.57-3.19h0Z"/>
    <path class="cls-6" d="M450.26,355.67c-.87,10.08-2.93,20.62-.23,30.55,1.2,4.43,2.91,8.7,3.45,13.29.62,5.29,0,10.45-1.45,15.55l8.81-3.59c-6.99-4.26-12.22-4.77-20.13-3.01-7.88,1.75-16.12,1.06-24.1.5-5.39-.37-7.64,6.71-4.24,10.24,4.29,4.47,9.81,5.86,15.81,4.74,7.58-1.42,4.37-12.99-3.19-11.57-1.8.34-2.95-.42-4.13-1.65l-4.24,10.24c6.68.46,13.39.92,20.07.21,3.06-.32,6.01-.91,9.01-1.57,3.86-.84,5.77.21,9.09,2.23s7.77.08,8.81-3.59c2.9-10.17,2.55-20.4-.56-30.46-1.54-4.99-2.62-9.37-2.28-14.67.38-5.82.99-11.63,1.49-17.44.66-7.69-11.34-7.65-12,0h0Z"/>
    <path class="cls-6" d="M441.99,373.44c.62,8.4-3.89,15.11-7.59,22.28-2.49,4.81-7.56,12.82-1.66,17.03,2.65,1.89,5.49,1.4,8.11-.2s5.07-3.05,7.84-4.46c5.59-2.83,9.98-7.53,9.91-14.1-.08-7.18-9.37-7.6-11.79-1.6-1.57,3.89-2.69,7.79-3.43,11.92-1.35,7.55,10.21,10.79,11.57,3.19.74-4.13,1.86-8.03,3.43-11.92l-11.79-1.6c.03,2.4-3.5,3.51-5.34,4.39-1.37.65-2.77,1.23-4.07,2.02-.53.33-2.21,1.81-2.41,1.86l5.84,1.54-.48-.38,1.76,4.24c.24-2.31,2.6-5.39,3.71-7.48,1.56-2.93,3.21-5.82,4.58-8.85,2.58-5.7,4.27-11.58,3.8-17.88-.57-7.65-12.57-7.72-12,0h0Z"/>
    <path class="cls-6" d="M410.38,225.84c-.78-1.81-1.32-1.4-1.61,1.24l1.63-.47c1.65.13,4.1-1.02,5.77-1.34,3.65-.71,7.29-1.05,11-1.2,2.72-.11,4.98-1.8,5.79-4.4l.32-1.04c2.27-7.4-9.31-10.56-11.57-3.19l-.32,1.04,5.79-4.4c-7.49.31-15.71,1.12-22.77,3.84s-8.42,9.9-4.38,15.99c4.25,6.4,14.65.4,10.36-6.06h0Z"/>
    <path class="cls-6" d="M423.31,220.6c-5.18,4.32-8.72,11.98-6.72,18.77,1.86,6.31,11.51,10.47,15.7,3.87s-.82-14.65-6.52-17.92c-2.71-1.55-6.2-2.87-9.35-2.08-3.52.89-6.03,4.32-8.35,6.82-5.42,5.86-10.78,12.09-14.39,19.26-3.75,7.46-5.85,15.55-7.04,23.78-2.49,17.19-1.12,34.65-3.48,51.84-.44,3.23.78,6.4,4.19,7.38,2.81.81,6.93-.99,7.38-4.19,1.76-12.42-1-24.08-3.79-36.13-2.66-11.49-5.89-25.22,3.43-34.41,5.51-5.43-2.98-13.92-8.49-8.49-21.89,21.59.86,50.62-2.72,75.84l11.57,3.19c2.53-18.39.8-37.21,4.06-55.49,1.59-8.93,4.43-17.23,9.76-24.64,2.41-3.35,5.19-6.43,7.99-9.45.79-.85,1.59-1.7,2.39-2.54,1.76-1.38,1.6-1.68-.49-.91,1.61.73,3.52,1.45,2.87,3.52l4.19-4.19c1.74,1.19,2.65,1.1,2.74-.25.13-.68.36-1.33.7-1.94.68-1.31,1.72-2.21,2.84-3.14,5.93-4.96-2.59-13.41-8.49-8.49h0Z"/>
    <path class="cls-6" d="M380.2,245.69c-9.13,9.57-14.49,22.69-10.25,35.8,2.14,6.63,6.02,12.62,9.64,18.51s7.41,11.38,11.95,16.46c5.16,5.77,13.62-2.74,8.49-8.49-6.77-7.57-12.75-17.02-17.09-26.21-4.77-10.1-1.71-19.77,5.75-27.59,5.33-5.59-3.14-14.09-8.49-8.49h0Z"/>
    <path class="cls-6" d="M411.62,237.35c-.04,4-.96,9.23,1.45,12.69.83,1.19,1.81,2.02,3.12,2.67.77.41,1.58.7,2.43.85,2.12.65,1.89-.42-.71-3.21-2.14,1.61-.83,8.32-.45,10.32.63,3.34,1.81,6.69,4.39,9.05,5.32,4.87,13.05,3.03,16.28-3.16,1.42-2.72,1.84-6.21.32-8.99-.9-1.64-2.46-2.84-4.18-3.46-.95-.24-1.9-.41-2.88-.5-2.5,0-1.94.63,1.67,1.92-3.52-6.87-13.88-.81-10.36,6.06.78,1.53,1.79,2.54,3.34,3.28.94.54,1.95.82,3.03.82,2.57.46,2.05-1.11-1.54-4.73,1.9.29,2.56-.14,2-1.29-.21-.72-.37-1.45-.48-2.19-.26-2.06.48-3.34.79-5.31.55-3.45-.63-6.84-3.65-8.75-1.37-.87-2.88-.98-4.37-1.42,1.71,1.59,2.31,1.29,1.78-.91l.03-3.72c.07-7.72-11.93-7.73-12,0h0Z"/>
    <path class="cls-6" d="M423.11,264.15c2.3,17.95,12.97,33.92,21.26,49.63,3.6,6.83,13.97.78,10.36-6.06-3.95-7.49-7.95-14.95-11.84-22.47-3.44-6.64-6.82-13.59-7.78-21.1s-12.98-7.65-12,0h0Z"/>
    <path class="cls-6" d="M443.83,282.95c-.7-2.88-1.51-5.73-2.47-8.54s-1.83-6.13-3.85-8.33c-1.6-1.75-5.26-2.49-7.27-.94l-.15.12c-2.79,2.16-3.62,4.91-2.15,8.21l.06.14c1.32,2.96,5.63,3.66,8.21,2.15,3.05-1.78,3.48-5.24,2.15-8.21l-.06-.14-2.15,8.21.15-.12-7.27-.94.28.3-1.54-2.65c1.84,4.53,3.34,9.16,4.5,13.92,1.83,7.5,13.4,4.32,11.57-3.19h0Z"/>
    <path class="cls-6" d="M449.47,300.53c4.37-2.09,5.63-7.52,8.72-10.96,3.94-4.38,6.31-8.96,6.47-14.96.21-7.72-11.79-7.72-12,0-.1,3.69-2.33,5.65-4.6,8.3-1.12,1.31-2.23,2.66-3.07,4.17-.35.63-.6,1.31-.93,1.95-.29.55-.82,1.21-.65,1.13-6.96,3.33-.88,13.68,6.06,10.36h0Z"/>
    <path class="cls-6" d="M451.82,296.21c-1.25-3.24-2.21-6.54-2.89-9.94-.64-3.18-4.41-5.01-7.38-4.19-3.31.91-4.83,4.19-4.19,7.38.69,3.4,1.65,6.7,2.89,9.94,1.16,3.02,4.04,5.11,7.38,4.19,2.89-.79,5.36-4.34,4.19-7.38h0Z"/>
    <path class="cls-6" d="M474.64,284.19c-2.62-2.05-4.64-3.81-6-6.86-.74-1.67-1.69-3.01-3.09-4.22-.71-.61-2.28-1.33-2.41-2.43-.38-3.22-2.49-6-6-6-2.95,0-6.38,2.76-6,6,.29,2.48.73,4.68,2.04,6.86,1.22,2.04,3.14,2.94,4.46,4.44s1.91,4.08,3.26,5.77c1.54,1.91,3.33,3.42,5.25,4.93,2.55,2,6,2.48,8.49,0,2.08-2.08,2.56-6.47,0-8.49h0Z"/>
    <path class="cls-6" d="M453.55,300.83c-2.67,10.12-5.49,20.27-8.61,30.26s-8.97,19.2-15.36,26.94-16.45,8.41-25.71,11.43c-4.78,1.56-8.53,3.44-13.69,3.31-6.01-.15-12.03-.61-18.04-.93-7.72-.41-7.69,11.59,0,12,6.29.33,12.62.93,18.92.96,5.97.03,10.46-1.97,15.99-3.77,10.69-3.47,21.62-4.46,29.79-13.14,16.55-17.58,22.31-41.27,28.28-63.88,1.97-7.47-9.6-10.66-11.57-3.19h0Z"/>
    <path class="cls-6" d="M441.25,313.53c-.47-2.53-.89-3.15-1.28-1.85-.27.65-.52,1.32-.72,2-.34,1.26-.48,2.62-.56,3.92-.16,2.72.33,5.38.58,8.08.57,6.29-2.89,11.46-5.94,16.74-6.12,10.61-14.66,17.79-26.43,21.4-5.74,1.76-11.68,2.66-17.66,3.01-3.36.2-6.72.25-10.09.21-1.33-.01-3.29-.47-4.59-.09-2.34-.5-2.47-.03-.39,1.42.89,1.73,1.39,2.13,1.51,1.18,1.2-.69,2.27-8.15,2.73-9.68.94-3.11,1.92-6.22,2.92-9.31,2.22-6.81,4.57-13.56,6.93-20.32,2.28-6.54-7.57-10.35-10.97-4.62-3.77,6.36-7.55,12.71-11.32,19.07s6.42,12.7,10.36,6.06,7.55-12.71,11.32-19.07l-10.97-4.62c-3,8.6-6,17.2-8.71,25.9-1.81,5.82-6.81,15.92-3.09,21.9,3.82,6.15,14.65,4.32,20.67,4.14,8.5-.26,17.18-1.25,25.3-3.85,15.4-4.93,26.34-14.82,34.05-28.87,4.07-7.41,7.13-13.6,6.17-22.23-.44-3.93-.12-6.46.81-10.21.8-3.21.54-6.55-2.17-8.79-5.91-4.88-14.45,3.57-8.49,8.49h0Z"/>
    <path class="cls-6" d="M399.49,244.94c2.7,21.11-3.53,42.33-7.75,62.85-2.12,10.3-4.24,20.59-6.35,30.89-1.03,5.01-2.03,10.03-3.09,15.03-.8,3.76-1.33,8.92-5.8,9.76l7.6,5.79c-.07-2.26,2.87-5.99,3.85-7.98s1.95-4.15,2.84-6.27c2.3-5.45,4.18-11.05,5.42-16.84,2.38-11.18,1.95-22.48,2.42-33.83.46-11.23,2.33-22.33,5.5-33.11.85-2.89,1.79-5.75,2.83-8.58.82-2.24,2.32-4.63,2.76-6.95l.51-1.05c-2.97-.5-3.87-.03-2.7,1.4.08,1.14,1.83,3.17,2.4,4.15,1.6,2.77,3.19,5.53,4.79,8.3,5.88,10.19,11.96,20.32,16.81,31.05,1.89,4.18,4.8,9.4,3.04,14.02-1.89,4.97-5.41,9.67-7.85,14.42-4.78,9.32-9.45,19.44-17.83,26.14-1.75,1.39-3.72,2.66-5.77,3.56-1.21.53-4.04.62-3.39,1.54-.91-1.27.18-6.92.25-8.32.16-3.61.38-7.23.87-10.81,1.78-12.87,6.07-25.25,7.82-38.14,1.8-13.23,1.91-26.66,5.71-39.55l-10.03,2.65c10.52,8.34,14.92,22.35,18.65,34.78,2.28,7.6,2.51,15.14,2.73,23.02.23,8.03,1.58,16.94-.3,24.81h11.57c-5.24-13.63-7.11-28.51-10.57-42.65-3.57-14.62-7.7-29.1-12.3-43.44-2.39-7.44-12.92-4.34-11.57,3.19,4.55,25.34,7.77,50.87,10.94,76.41.93,7.46,12.6,7.83,12,0-1.5-19.41-2.99-38.83-4.74-58.22-.86-9.53-1.77-19.06-2.78-28.57-.77-7.33.02-17.96-5.53-23.54-3.81-3.84-9.98-.83-10.24,4.24-.98,18.95-1.97,37.9-2.95,56.85h12l-.49-4.14c-.88-7.51-12.66-7.79-12,0,2.03,23.98,1.05,48.09-3.21,71.78-.82,4.55,4.16,10.17,8.81,6.78,4.68-3.41,7.67-7.9,8.94-13.59,1.42-6.37.36-12.85,1.27-19.24-3.66.48-7.31.96-10.97,1.43,1.81,3.16,3.21,6.42,4.07,9.96.63,2.56.59,5.35,1.73,7.75,2.8,5.91,9.02,4.62,13.65,1.84,8.95-5.37,13.77-15.31,22.55-20.76,6.55-4.06.53-14.45-6.06-10.36-4.99,3.1-8.94,7.22-12.81,11.57-3.26,3.66-7.38,9.3-12.47,10.35l4.62.6c2.19,1.3,1.11-.53.73-2.46-.34-1.73-.81-3.45-1.37-5.12-1.1-3.29-2.58-6.43-4.3-9.44-2.34-4.09-10.21-3.87-10.97,1.43-.7,4.91-.62,9.71-.79,14.65-.13,3.71-.62,8.61-3.9,11l8.81,6.78c4.45-24.77,5.76-49.89,3.63-74.97h-12l.49,4.14c.88,7.53,11.59,7.89,12,0,.98-18.95,1.97-37.9,2.95-56.85l-10.24,4.24c1.69,1.71,1.35,8.91,1.59,11.12.43,3.94.84,7.88,1.23,11.81.89,8.86,1.72,17.74,2.49,26.61,1.52,17.42,2.87,34.86,4.21,52.3h12c-3.31-26.6-6.64-53.21-11.37-79.6l-11.57,3.19c4.6,14.33,8.72,28.81,12.3,43.44,3.46,14.14,5.33,29.03,10.57,42.65,1.97,5.12,10.08,6.25,11.57,0,2.17-9.06,1-18.78.73-28-.26-8.91-.58-17.61-3.16-26.21-4.29-14.26-9.66-30.5-21.74-40.07-3.47-2.75-8.65-2.04-10.03,2.65-4.24,14.38-3.94,29.35-6.37,44.02-2.38,14.4-7.11,28.24-8.19,42.88-.45,6.11-2.17,14.8,1.73,20.08,3.36,4.55,9.37,5.2,14.52,3.76,11.32-3.17,19.83-13.3,25.65-22.97,3.48-5.77,6.29-11.91,9.48-17.83,3.37-6.26,7.86-12.02,7.51-19.48-.29-6.25-3.44-12.31-6.03-17.86-3.13-6.7-6.73-13.17-10.39-19.59-3.45-6.04-6.95-12.06-10.43-18.09-3.05-5.29-6.95-13.29-14.56-10.76-5.4,1.8-7.18,7.94-9.05,12.69-2.65,6.72-4.78,13.65-6.39,20.7-3.57,15.71-3.16,31.28-4.18,47.22-.5,7.85-2.22,15.49-4.91,22.88-1.45,3.96-3.23,7.78-5.23,11.5s-3.99,6.65-3.86,10.88,3.71,6.51,7.6,5.79c10.62-1.98,13.1-12.89,14.95-21.9,2.51-12.21,5.02-24.42,7.54-36.63,4.76-23.16,12.36-47.75,9.31-71.57-.97-7.56-12.98-7.65-12,0h0Z"/>
    <path class="cls-6" d="M361.97,374.28l-2.7,2.73c-3.57,3.6-1.03,10.41,4.24,10.24,3.91-.12,7.82-.24,11.74-.36l-6-6c.35-2.66.47-2.4-1.59-.54-.65.59-1.25,1.23-1.73,1.96-1.38,2.07-1.08,5.39-2.57,7.02s-5.22,1.73-7.31,2.34c-2.76.82-5.22,1.98-7.49,3.75-9.38,7.31-10.34,19.51-10.29,30.52.02,4.13,5.26,8.04,9.03,5.18l1.39-1.05c6.08-4.61.1-15.03-6.06-10.36l-1.39,1.05,9.03,5.18c-.02-5.55-.28-11.6,2.23-16.71,2.84-5.77,7.62-5.73,13.07-7.68,4.67-1.67,8.59-4.84,9.91-9.78.18-.67.07-2.11.41-2.66.46-.76,1.9-1.29,2.56-1.91,1.97-1.88,2.47-3.66,2.82-6.31.42-3.16-3.09-6.09-6-6-3.91.12-7.82.24-11.74.36l4.24,10.24,2.7-2.73c5.44-5.49-3.04-13.98-8.49-8.49h0Z"/>
    <path class="cls-6" d="M358.31,394.13c7.72,0,7.73-12,0-12s-7.73,12,0,12h0Z"/>
    <path d="M325.75,351c-1.77.99-3.93,1.77-5.97,1.26-1.62-.4-2.87-1.52-3.27-3.05-.04-.15-.04-.81,0-.94.1-.51.18-.72.42-1.13s.4-.6.78-.95c.25-.23.62-.49,1.04-.66.66-.28,1.61-.34,2.37-.16.87.2,1.68.6,2.32,1.18,1.7,1.55,2.16,3.85,1.88,6.06-.1.81.76,1.5,1.5,1.5.89,0,1.4-.69,1.5-1.5.34-2.8-.47-5.8-2.44-7.87s-4.98-3.01-7.65-2.2-4.68,3.29-4.74,6.07,1.84,5.03,4.21,6.07c3.17,1.39,6.68.53,9.59-1.1,1.68-.94.17-3.54-1.51-2.59h0Z"/>
    <path d="M271.31,346.21c-3.31.74-6.85-.22-9.49-2.32s-5.55-6.64-2.97-9.65c1.14-1.33,2.98-1.93,4.63-2.33,2.34-.57,4.77-.86,7.18-.85,2.13.01,3.82.6,4.97,2.48s1.46,3.94,2.03,5.96c.33,1.15.75,2.27,1.28,3.34.43.87,1.12,1.92.85,2.93-.66,2.52-4.32,2.31-6.29,2.24s-1.93,2.94,0,3c2.82.09,5.92-.05,7.96-2.29,1.9-2.09,1.48-4.54.33-6.88-2.25-4.58-2.09-11.57-7.93-13.39-2.72-.84-5.96-.38-8.71.06-2.46.39-5.07,1-7.13,2.47-4.69,3.36-3.28,9.55,0,13.4s8.96,5.85,14.07,4.72c1.88-.42,1.09-3.31-.8-2.89h0Z"/>
    <path d="M202.28,340.22c1.99-13.16,11.05-23.51,20.72-32s21.09-15.95,29.76-25.96,16.22-24.47,8.26-36.68c-1.85-2.84-4.17-5.32-6.18-8.04s-3.96-5.81-5.58-8.93c-3.26-6.25-5.49-13.02-6.66-19.96-1.09-6.53-.9-13.07-.55-19.65s.73-12.71-.25-19c-.91-5.82-3.3-11.39-7.61-15.5s-9.71-6.24-15.29-7.65-11.71-2.16-17.52-3.42c-6.23-1.35-12.04-3.63-17.55-6.84-11.19-6.5-20.7-15.49-31.97-21.87-21.04-11.91-47.89-11.12-68.57,1.26-5.3,3.17-10.09,7.1-14.28,11.64-4.77,5.17-8.89,10.92-13.94,15.84-9.49,9.26-22.47,13.6-32.4,22.29-5.47,4.78-9.38,10.91-12.84,17.23s-6.53,12.77-8.34,19.68-2.23,14.06.03,20.78,6.86,11.79,10.5,17.59c7.58,12.05,9.38,26.47,12.81,40.01,2.94,11.63,7.75,23.47,16.88,31.66,4.15,3.72,9.17,6.53,14.69,7.56,6.88,1.28,13.76-.21,20.47-1.72,6.55-1.47,13.43-3.11,20.12-1.53,5.61,1.33,10.48,4.61,15.14,7.86s9.16,6.55,14.41,8.65c2.65,1.06,5.46,1.71,8.32,1.83,3.93.16,7.8-.73,11.67-1.25,13.3-1.79,25.77,4.39,38.77,5.93,5.96.71,11.92.16,17.37-2.48,1.74-.84.22-3.43-1.51-2.59-11.52,5.58-24.73.1-36.3-2.48-6.53-1.46-12.97-2.16-19.62-1.2-3.72.54-7.45,1.33-11.23,1.03-2.67-.22-5.32-1.02-7.75-2.14-10.07-4.61-17.87-13.78-28.99-16.16-6.64-1.42-13.38-.1-19.9,1.35-6.5,1.45-13.3,3.23-20,2.04-11.5-2.05-19.46-11.72-24.31-21.72-5.73-11.83-7.13-25.14-10.67-37.68-1.82-6.45-4.21-12.8-7.79-18.48s-8.46-11.04-10.47-17.71c-4.11-13.64,2.99-28.13,9.62-39.73,3.43-6,7.45-11.46,12.9-15.77,5.08-4.01,10.85-7.06,16.4-10.37s10.86-6.95,15.38-11.62c4.9-5.06,9.01-10.82,13.9-15.88,16.31-16.87,42.14-23.24,64.59-16.79,12.06,3.46,21.97,11.06,31.91,18.41,5,3.7,10.07,7.35,15.56,10.31s11.21,4.95,17.28,6.19c10.72,2.19,23.83,2.61,31.64,11.38,8.26,9.28,6.03,23.34,5.53,34.69-.29,6.53,0,13,1.33,19.41s3.81,13.23,7.09,19.25c1.61,2.96,3.45,5.79,5.49,8.47s4.36,5.18,6.12,8.08c3.79,6.26,2.71,13.68-.23,20.07-5.39,11.74-15.54,20.25-25.43,28.13s-20.29,15.86-27.3,26.72c-3.27,5.06-5.64,10.7-6.54,16.68-.29,1.89,2.6,2.7,2.89.8h0Z"/>
    <path d="M81.53,193.95c-2.2-8.34,3.05-16.02,7.73-22.41,2.36-3.22,4.73-6.51,8.04-8.83s7.04-4.01,10.65-5.77c3.83-1.87,7.76-3.56,11.91-4.56s8.51-1.3,12.81-1.13c7.84.31,15.66,2.08,23.02,4.75,6.96,2.52,13.58,5.98,19.65,10.21,3.07,2.14,5.99,4.49,8.74,7.02s5.67,5.42,7.89,8.6c2.43,3.47,3.72,7.31,4.4,11.47s1.11,8.78.42,13.07c-1.24,7.77-6.32,14.05-12.25,18.91-3.23,2.65-6.75,4.91-10.27,7.13s-6.84,4.43-10.68,5.73c-8.08,2.74-16.32-.29-23.54-4.02-1.81-.94-3.6-1.93-5.37-2.94-1.68-.95-3.2,1.64-1.51,2.59,7.47,4.24,15.73,8.75,24.59,8.46,4.35-.14,8.38-1.61,12.16-3.68s7.56-4.53,11.18-7.01c6.88-4.7,13.44-10.46,16.79-18.28,1.75-4.09,2.35-8.46,2.19-12.89s-.7-9.18-2.15-13.44c-2.66-7.85-9.31-14.04-15.58-19.16s-12.95-9.22-20.22-12.41c-15.59-6.84-34.12-10.19-50.3-3.48-4.12,1.71-8.15,3.72-12.09,5.83s-7.13,4.59-9.86,8c-5.25,6.55-11.03,14.05-11.8,22.7-.19,2.12,0,4.25.55,6.31.49,1.87,3.39,1.07,2.89-.8h0Z"/>
    <path d="M88.82,198.91c-3.27.8-6.7,2.22-9.14,4.62-2.56,2.52-3.1,5.89-1.74,9.18,1.26,3.03,3.34,6.59,6.13,8.43s6.54,1.75,9.64.72c4.01-1.33,7.25-4.17,10.91-6.17,1.69-.93.18-3.52-1.51-2.59-5.29,2.89-13.83,10.72-19.25,3.77-1.11-1.42-2.12-3.08-2.9-4.71s-1.19-3.47-.25-5.12c1.71-3,5.76-4.46,8.91-5.23,1.87-.46,1.08-3.35-.8-2.89h0Z"/>
    <path d="M113.1,228.75c-10.33,8.96-12.91,23.85-13.85,36.81-.5,6.93-.12,14.45,3.71,20.48,2.03,3.2,4.91,5.67,7.96,7.86s6.25,4,9.65,5.48c7.64,3.33,15.94,4.94,24.27,4.6,1.92-.08,1.93-3.08,0-3-7.02.29-14.01-.84-20.59-3.32-6.29-2.37-12.95-6.07-17.34-11.27s-5.05-12.14-4.79-18.59,1.14-12.8,2.78-18.94c1.82-6.81,4.91-13.3,10.31-17.99,1.46-1.27-.67-3.38-2.12-2.12h0Z"/>
    <path d="M118.24,250.91c-.03,6.72.14,13.74,2.65,20.07.61,1.53,1.32,3.01,2.2,4.41s1.9,2.99,3.51,3.54c3.19,1.1,5.97-2.77,7.52-5.01,2.23-3.22,3.48-6.99,3.82-10.88.17-1.92-2.83-1.91-3,0-.31,3.62-1.68,7.13-3.88,10.02-.63.82-2.44,3.45-3.64,2.96-.66-.27-1.15-1.24-1.52-1.81-.51-.77-.97-1.58-1.38-2.4-3.18-6.4-3.3-13.9-3.27-20.9,0-1.93-2.99-1.93-3,0h0Z"/>
    <path d="M132.5,264.07c2.12,1.22,4.59,1.8,7.02,1.33,2.23-.43,4.17-1.9,4.93-4.07.42-1.21.46-2.57.59-3.84.15-1.37.3-2.74.45-4.11s-.03-2.56-1.2-3.39c-.98-.69-2.36-.93-3.5-1.21-3.01-.73-6.12-1.06-9.21-.99-1.93.04-1.93,3.04,0,3,2.74-.06,5.47.19,8.14.82.72.17,1.44.36,2.15.57.22.07.45.17.66.23.41.11.05.08.04.01.04.58-.11,1.22-.17,1.8-.08.71-.15,1.42-.23,2.12-.23,2.07-.02,4.65-2.14,5.73-1.9.97-4.25.4-6.01-.61s-3.19,1.63-1.51,2.59h0Z"/>
    <path d="M127.81,243.28c0,2.98.29,5.95.84,8.88.15.77,1.12,1.28,1.85,1.05.82-.27,1.21-1.02,1.05-1.85-.13-.7-.25-1.4-.35-2.1-.08-.53.03.28-.03-.25-.02-.16-.04-.33-.06-.49-.04-.35-.08-.71-.11-1.06-.13-1.39-.19-2.78-.18-4.18,0-.78-.69-1.54-1.5-1.5s-1.5.66-1.5,1.5h0Z"/>
    <path d="M190.45,246.56c-3.53-.89-6.5-3.05-9.75-4.59-1.64-.78-3.34-1.43-5.15-1.71-2.13-.33-4.26-.23-6.41-.1-1.92.12-1.93,3.12,0,3,2.05-.13,4.16-.3,6.18.09,1.68.32,3.24.98,4.75,1.76,3.14,1.61,6.11,3.58,9.57,4.45,1.87.47,2.67-2.42.8-2.89h0Z"/>
    <path d="M170.33,242.81c-2.12-1.22-4.35-2.41-6.85-2.52s-4.71,1.03-6.12,3.12-2.61,4.58-2.15,7.15c.37,2.1,1.99,3.87,3.84,4.84,2.59,1.36,5.56,1.3,8.39,1.16.81-.04,1.5-.66,1.5-1.5,0-.78-.69-1.54-1.5-1.5-3.04.15-7.77.39-9.13-3-.65-1.6.28-3.36,1.1-4.75.43-.72.87-1.5,1.59-1.96.6-.37,1.29-.54,1.98-.56,2.13-.07,4.05,1.08,5.84,2.11,1.68.96,3.19-1.63,1.51-2.59h0Z"/>
    <path d="M166.92,251.99c6.6,5.38,15.55,6.74,23.82,7.29,2.35.15,3.51-1.46,4.78-3.19,1.39-1.89,2.09-3.91,2.26-6.24.31-4.38-.19-9.16-2.42-13.02-.96-1.67-3.56-.16-2.59,1.51,1.85,3.21,2.15,7.02,2.05,10.65-.06,1.97-.49,3.61-1.63,5.24-.4.56-1.12,1.87-1.85,2.07s-1.86-.14-2.58-.22c-6.82-.69-14.21-1.74-19.7-6.22-1.48-1.21-3.62.9-2.12,2.12h0Z"/>
    <path d="M184.93,229.61c-.44,2.2.7,3.99,2.03,5.63s2.66,3.24,3.99,4.86c.5.61,1.61.56,2.12,0,.59-.65.53-1.47,0-2.12-1.18-1.44-2.36-2.88-3.55-4.33-.54-.65-.83-.96-1.28-1.73-.1-.17-.2-.35-.28-.54.1.23-.08-.28-.1-.33-.02-.09-.05-.19-.06-.28.02.16.02.15,0-.03,0-.1,0-.19,0-.29-.03.16-.03.14,0-.04.15-.77-.22-1.66-1.05-1.85-.75-.17-1.68.22-1.85,1.05h0Z"/>
    <path d="M152.93,281.83c2.79-1.71,5.75-3.08,8.89-4.03,1.41-.43,2.84-.78,4.29-1.05s3.34-.74,4.86-.51c1.36.21,2,1.88,2.7,2.89.81,1.18,1.67,2.33,2.6,3.41,1.8,2.1,3.89,3.99,6.27,5.41,1.1.66,2.26,1.2,3.47,1.64,1.37.5,2.84.71,4.18,1.27.99.41,2.5,1.41,2.28,2.72-.21,1.23-2.21,1.54-3.17,1.81-3.37.93-6.73,1.89-10.11,2.79-1.56.42-2.62.59-3.74-.75-.93-1.11-1.77-2.28-2.76-3.35-4.21-4.57-10.08-8.4-16.55-7.66-1.9.22-1.92,3.22,0,3,6.64-.76,12.24,3.85,16.11,8.75.87,1.11,1.65,2.29,2.96,2.92,1.69.81,3.54.32,5.25-.15,3.69-1.02,7.54-1.83,11.15-3.11,2.89-1.02,4.83-3.59,3.29-6.64s-4.87-3.39-7.74-4.36-5.47-2.89-7.6-5.1c-1.09-1.13-2.08-2.35-2.98-3.63s-1.56-2.69-2.69-3.7c-1.57-1.4-3.62-1.23-5.57-1s-3.77.55-5.61,1.02c-3.98,1.02-7.8,2.67-11.31,4.81-1.64,1.01-.14,3.6,1.51,2.59h0Z"/>
    <path d="M146,305.09c4.92-.59,9.62-2.36,13.61-5.33.65-.48.98-1.3.54-2.05-.37-.64-1.4-1.02-2.05-.54-3.53,2.63-7.71,4.4-12.09,4.92-.8.1-1.5.62-1.5,1.5,0,.74.69,1.6,1.5,1.5h0Z"/>
    <path d="M171.63,267.41c3.53-2.35,8.47-5.61,12.79-3.35,3.55,1.85,5.55,5.71,9.27,7.4s8.03,1.59,12.03,2.56c.85.21,1.71.46,2.51.84.73.35,2.29,1.06,2.49,1.96.18.79-1.21,1.26-1.76,1.54-1.14.58-2.29,1.15-3.46,1.68-5.02,2.31-10.66,4.15-16.13,2.38-1.84-.6-2.63,2.3-.8,2.89,5.57,1.8,11.34.36,16.57-1.85,1.33-.56,2.63-1.17,3.93-1.81,1.19-.59,2.58-1.13,3.56-2.07,1.91-1.85,1.12-4.42-.75-5.95-3.82-3.13-8.98-2.9-13.56-3.84-2.37-.49-4.42-1.38-6.22-3.02s-3.27-3.43-5.24-4.75c-5.55-3.72-11.85-.44-16.73,2.8-1.6,1.06-.1,3.66,1.51,2.59h0Z"/>
    <path d="M172.15,257.4v5.36c0,.78.69,1.54,1.5,1.5s1.5-.66,1.5-1.5v-5.36c0-.78-.69-1.54-1.5-1.5s-1.5.66-1.5,1.5h0Z"/>
    <path d="M104.93,173.1c2.93-1.29,5.78-2.76,8.54-4.39.67-.4.98-1.37.54-2.05s-1.33-.97-2.05-.54c-2.76,1.63-5.61,3.1-8.54,4.39-.72.32-.94,1.43-.54,2.05.48.75,1.28.88,2.05.54h0Z"/>
    <path d="M113,175c5.78-6.08,11.55-12.16,17.33-18.24,1.33-1.4-.79-3.52-2.12-2.12-5.78,6.08-11.55,12.16-17.33,18.24-1.33,1.4.79,3.52,2.12,2.12h0Z"/>
    <path d="M128.95,167.26c1.58.22,3.28.46,4.83-.12,1.65-.62,2.63-1.92,3.46-3.41s1.59-3.07,1.62-4.77c.02-.9-.21-1.8-.67-2.57-.17-.28-.37-.55-.55-.82-.09-.13-.18-.27-.24-.42.05.12.05.09,0-.07.02.15.03.13.03-.06.05-.81-.72-1.5-1.5-1.5-.85,0-1.45.69-1.5,1.5-.04.74.23,1.45.63,2.07.33.5.67.92.78,1.42.07.32.04-.05.03.28,0,.17,0,.35-.02.52.02-.17-.04.17-.05.21-.03.15-.07.29-.11.44-.19.64-.45,1.18-.77,1.78-.3.56-.6,1.14-.97,1.66-.22.3-.66.72-.98.86-.47.21-.88.24-1.46.24-.32,0-.63-.02-.95-.05-.17-.02-.34-.04-.52-.05-.27-.03,0,0-.28-.04-.8-.11-1.61.2-1.85,1.05-.19.7.24,1.73,1.05,1.85h0Z"/>
    <path d="M147.98,163.49c.22-1.58.15-3.16-.34-4.7s-1.29-2.88-2.38-4.03c-.54-.57-1.58-.59-2.12,0s-.58,1.51,0,2.12c.11.11.21.22.31.34.05.06.1.12.15.18.12.15.05.01-.02-.03.1.06.2.28.26.37.08.13.17.26.24.39.16.26.3.53.43.81.03.06.08.14.09.21-.01-.1-.09-.22-.02-.04.06.16.12.32.17.49.09.29.17.59.24.88.03.15.05.3.08.45.04.21-.03-.28,0-.06,0,.08.02.15.02.23.03.3.04.61.04.91,0,.15,0,.3-.02.46,0,.11-.07.62-.01.23-.06.42-.07.78.15,1.16.18.31.54.61.9.69.71.16,1.73-.22,1.85-1.05h0Z"/>
    <path d="M122.45,203.12c5.92,1.17,12.24-2.65,13.77-8.55.48-1.87-2.41-2.67-2.89-.8-.56,2.15-1.97,3.96-3.84,5.13-1.05.66-1.87,1-3.09,1.27-.96.21-2.21.23-3.15.05-.79-.16-1.62.23-1.85,1.05-.2.74.25,1.69,1.05,1.85h0Z"/>
    <path d="M149.66,183.35c3.95.08,8.19-.15,11.03-3.27,2.35-2.59,3.34-6.32,2.38-9.71-.52-1.85-3.42-1.07-2.89.8.67,2.36,0,5.08-1.72,6.91-.5.53-.8.78-1.39,1.13-.67.4-1.41.66-2.17.84-1.71.4-3.5.34-5.24.31-1.93-.04-1.93,2.96,0,3h0Z"/>
    <path d="M154.17,201.3c1.93,0,1.93-3,0-3s-1.93,3,0,3h0Z"/>
    <path d="M156.24,217.37c5.37-2.8,10.61-6.73,12.6-12.69.26-.77-.3-1.64-1.05-1.85-.82-.22-1.59.28-1.85,1.05-1.71,5.11-6.55,8.46-11.23,10.9-.72.37-.93,1.38-.54,2.05.43.73,1.33.91,2.05.54h0Z"/>
    <path class="cls-4" d="M414.53,297.67c.56-.95,1.42-2.89,2.4-3.5l-.18-.62c.34.62.67,1.26.99,1.89,1.67,3.21,3.31,6.44,4.97,9.66,3.31,6.44,6.62,12.89,9.94,19.33,3.53,6.87,13.89.81,10.36-6.06-2.86-5.56-5.72-11.13-8.58-16.69-2.55-4.95-4.73-10.59-7.94-15.15-2.65-3.75-7.1-5.47-11.6-4.45-5.07,1.15-8.22,5.27-10.71,9.52-3.92,6.68,6.45,12.72,10.36,6.06h0Z"/>
    <path class="cls-4" d="M451.58,236.31c.19,4.06.43,8.17.08,12.22-.33,3.81-1.39,7.51-1.11,11.36.25,3.33,1.45,6.43,2.09,9.67.85,4.32-.85,6.26-3.33,9.56-10.7,14.26-21.44,28.49-32.16,42.73-4.64,6.17,5.77,12.16,10.36,6.06,11.35-15.09,23.56-29.83,34.18-45.44,4.74-6.97,2.82-13.32,1.25-20.93-.81-3.91.14-7.38.55-11.27.49-4.65.3-9.3.08-13.96-.36-7.69-12.36-7.73-12,0h0Z"/>
    <path class="cls-4" d="M419.16,221.86c2.53,1.16,4.49.98,7.15,1.23l-4.24-1.76.65.59-1.76-4.24c.39,2.98-.45,6.98.12,10.46.62,3.8,2.5,8.26,1.28,12.1s-4.38,6.66-5.21,10.8c-.78,3.91.24,7.9,2.55,11.11,2.13,2.97,5.3,5.18,8.9,5.96.22.05,2.76.5,2.86.3l-2.96-3.04-.1,1.07c-.71,1.62.12,4.92.46,6.58,2,9.78,9.89,16.32,13.47,25.29,2.83,7.08,14.44,3.99,11.57-3.19-1.91-4.78-4.47-8.87-7.36-13.11s-6.12-8.69-6.23-13.9c-.09-4.07.44-8.21-3.74-10.64-2.27-1.32-7.68-.06-7.77-3.89-.04-1.71,2.12-3.89,2.93-5.29,1.14-1.96,2.08-4.03,2.54-6.26.93-4.5.03-8.97-.9-13.39-.45-2.14-1-4.33-.87-6.53.11-1.82.66-3.41.33-5.25-.36-2.04-1.64-3.96-3.52-4.97-.96-.52-1.95-.71-3.03-.82-.8-.08-3.21-.56-1.09.41-6.97-3.19-13.08,7.15-6.06,10.36h0Z"/>
    <path class="cls-4" d="M417.55,212.26c-7.64.89-14.55,3.48-20.54,8.39-6.52,5.34-8.91,12.19-13.05,19.19-2.16,3.65-5.12,6.76-7.37,10.35s-3.82,7.28-5.42,11.06c-3.58,8.44-6.44,16.31-5.03,25.6,1.3,8.54,5.24,16.5,3.17,25.24-1.03,4.37-2.33,9.05-4.25,13.11-1.81,3.82-4.62,6.89-7.26,10.14-5.51,6.75-8.3,13.84-10.88,22.08-3.06,9.78-6.09,19.58-8.92,29.43-2.14,7.44,9.44,10.61,11.57,3.19,2.56-8.9,5.27-17.75,8.03-26.59,2.52-8.07,4.8-14.93,10.26-21.52,9.86-11.89,16.33-28.01,13.23-43.61-1.5-7.55-4.71-14.71-2.69-22.47s5.76-15.89,10.42-22.36c2.17-3.01,4.55-5.78,6.31-9.07s2.97-6.97,5.21-10.04c4.01-5.51,10.43-9.34,17.21-10.13,7.58-.88,7.67-12.89,0-12h0Z"/>
    <path class="cls-4" d="M407.18,224.22c-.22-.58-.37-1.17-.47-1.79l.21,1.6c-.09-.73-.1-1.43-.03-2.15l-.21,1.6c.03-.2.06-.41.1-.61.3-1.62.25-3.16-.6-4.62-.73-1.24-2.16-2.43-3.59-2.76-2.94-.67-6.78.89-7.38,4.19-.47,2.58-.53,5.24.4,7.74.56,1.5,1.34,2.76,2.76,3.59,1.29.75,3.18,1.07,4.62.6,2.87-.93,5.36-4.23,4.19-7.38h0Z"/>
    <path class="cls-4" d="M413.49,224.78c-2.69,14.43-2.42,29.18,2.7,43.07,4.84,13.16,10.17,27.14,17.12,39.33,3.82,6.71,14.19.67,10.36-6.06-6.19-10.86-10.71-23.09-15.24-34.72-4.84-12.41-5.8-25.36-3.36-38.43,1.41-7.55-10.15-10.78-11.57-3.19h0Z"/>
    <path class="cls-4" d="M455.65,244.6c4.24,8.21,8.83,16.34,12.62,24.77,4.01,8.94,5.15,18.44,6.02,28.1.69,7.63,12.69,7.7,12,0-.96-10.62-2.13-21.09-6.29-31.01-4.02-9.58-9.22-18.7-13.99-27.92-3.55-6.86-13.91-.8-10.36,6.06h0Z"/>
    <path class="cls-4" d="M458.75,265.1c4.23,11.49,9.51,22.57,16.11,32.89,2.97,4.64,7.44,9.06,9.77,14.01s-3.44,10.75-6.5,14.53c-15.55,19.24-34.88,35.09-51.99,52.87-5.36,5.57,3.12,14.06,8.49,8.49,18.68-19.42,39.87-36.63,56.17-58.23,3.46-4.59,6.78-9.58,6.67-15.56-.12-6.52-4.78-11.32-8.32-16.33-7.81-11.08-14.15-23.14-18.82-35.86-2.64-7.19-14.24-4.08-11.57,3.19h0Z"/>
    <path class="cls-4" d="M464.65,277.93c2.92,5.64,8.07,9.74,11.42,15.15,3.39,5.46,5.96,11.37,8.52,17.25,3.07,7.06,13.42.96,10.36-6.06-2.56-5.88-5.13-11.79-8.52-17.25-3.33-5.37-8.55-9.61-11.42-15.15-3.56-6.86-13.91-.8-10.36,6.06h0Z"/>
    <path class="cls-4" d="M472.91,286.54c4.92,5.47,5.78,16.56,3.63,23.44-1.24,3.97-4.85,7.65-6.89,11.25-2.4,4.23-4.52,8.61-6.88,12.86-4.58,8.27-10.31,15.61-17.46,21.81-3.43,2.97-7.24,5.42-10.76,8.28-1.78,1.44-3.39,2.96-4.83,4.74-1.29,1.59-2.14,3.84-3.57,5.25l4.24-1.76-1.11.1,4.24,1.76c.48,1.08.54,1.06.18-.06-.21-.85-.45-1.7-.7-2.55-.49-1.69-1.04-3.36-1.62-5.02-.97-2.77-2.07-5.49-3.19-8.2-2.59-6.22-5.49-12.3-8.08-18.52-4.95-11.89-6.23-25.48-12.89-36.59-3.97-6.62-14.35-.59-10.36,6.06s5.08,13.99,7.18,21.2,5.15,14.25,8.21,21.16c3.12,7.05,6.36,14.05,8.67,21.42.92,2.94,1.29,6.42,3.35,8.83,2.23,2.6,6.13,3.28,9.14,1.6,2.7-1.51,3.49-4.48,5.24-6.77,1.98-2.6,4.87-4.53,7.47-6.43,5.83-4.25,11.28-8.89,16-14.37,9.61-11.17,15.08-24.84,23.18-37,3.96-5.94,4.29-13.72,3.87-20.68-.45-7.61-2.64-14.56-7.79-20.29s-13.64,2.76-8.49,8.49h0Z"/>
    <path class="cls-4" d="M458.92,278.9c-17.71,14.05-32.19,30.43-45.98,48.24-2.35,3.03-2.42,7.23,1.21,9.42,10.66,6.44,20.56-13.69,26.12-19.91,8.23-9.2,18.35-16.15,29.69-20.95-3.01-1.73-6.02-3.45-9.03-5.18.15,1.75-5.66,4.88-6.99,5.75-2.22,1.45-4.51,2.8-6.72,4.27-5.16,3.42-9.96,7.39-14.23,11.87-8.46,8.89-15,19.4-20.42,30.36-2.3,4.66,1.49,10.11,6.78,8.81,13.93-3.42,18.85-18.8,28.28-27.99,10.08-9.83,22.43-17.21,34.03-25.07l-8.81-3.59c.09.35-6.06,5.33-6.72,5.92-2.57,2.28-5.13,4.55-7.45,7.1-4.5,4.95-8.3,10.51-11.93,16.11-4.23,6.51-8.39,13.06-12.58,19.6-3.01,4.69-7.6,10.83-1.99,15.69,9.94,8.62,23.53-7.85,29.06-14.64,7.3-8.96,18.02-16.8,20.66-28.59.91-4.06-1.8-7.24-5.79-7.6-6-.54-11.02,2.3-16.19,4.92-4.59,2.33-9.5,5.15-9.42,11.05.07,5.08,4.82,8.84,9.66,8.97,5.73.15,9.47-4.2,12.15-8.72,2.45-4.14-1.73-10.83-6.78-8.81-7.34,2.93-15.74,5.26-22.29,9.79-3.03,2.09-5.46,4.77-8.02,7.39s-5.49,4.28-8.49,6.54c-6.53,4.93-5.71,12.67-5.57,20,.18,9.3.36,18.61.54,27.91.15,7.71,12.15,7.74,12,0s-.3-15.28-.45-22.93c-.07-3.65-.19-7.31-.21-10.96s.62-4.16,3.57-6.05c4.92-3.17,8.06-8.09,12.67-11.53,5.5-4.11,13.11-6.06,19.42-8.58l-6.78-8.81c-.65,1.1-4.08,6.47.23,7.08.7.1,3.23-1.67,3.8-1.96,3.31-1.68,6.28-3.63,10.13-3.28l-5.79-7.6c-2.1,9.35-11.74,16.12-17.57,23.29-2.94,3.62-5.88,7.44-9.56,10.34-.9.71-2.19,1.2-2.98,1.99l-1.3.67c.64,5.66,1.62,7.22,2.93,4.67,2.18-1.77,3.86-6.01,5.38-8.38,6.29-9.8,12.1-20.43,19.95-29.09,6.16-6.79,20-13.84,17.26-24.7-.9-3.57-5.62-5.75-8.81-3.59-11.1,7.52-22.63,14.7-32.75,23.54-4.82,4.21-9.13,8.9-12.84,14.12s-6.86,12.48-13.85,14.2l6.78,8.81c5.93-12.02,13.12-23.47,23.21-32.45,4.87-4.33,10.52-7.37,15.84-11.07,4.9-3.41,11.54-8.08,10.96-14.79-.42-4.87-4.69-7.02-9.03-5.18-9.77,4.15-18.74,9.95-26.54,17.16-3.74,3.46-7.09,7.25-10.2,11.28-1.78,2.31-3.47,4.69-5.3,6.97-.9,1.12-1.82,2.22-2.8,3.27l-1.2,1.24c-1.83,1.36-1.05,1.68,2.34.94l1.21,9.42c13.8-17.81,28.28-34.19,45.98-48.24,6.05-4.8-2.49-13.24-8.49-8.49h0Z"/>
    <path class="cls-4" d="M434.4,347.99c-5.09,4.8-5.26,11.55-3.59,17.94,1.85,7.04,3.1,14.05,2.15,21.4-.86,6.64-6.94,12.85-10.76,18.15-3.37,4.68-9.67,14.66-16.65,13.56,1.4,2.46,2.79,4.92,4.19,7.38.64-1.58,5.67-2.94,7.17-3.68,2.77-1.37,5.48-2.88,8.11-4.51,5.46-3.38,10.57-7.3,15.37-11.56,5.79-5.13-2.72-13.59-8.49-8.49-5.75,5.09-12,9.45-18.8,13.04-6.2,3.28-12.12,5.05-14.94,12.01-1.13,2.78,1.25,6.92,4.19,7.38,17.75,2.79,27.85-15.68,36.55-28.05,5.12-7.28,6.37-13.99,6.21-22.75-.07-3.92-.31-7.86-1.18-11.69-.73-3.22-4.01-8.87-1.06-11.66,5.63-5.31-2.87-13.79-8.49-8.49h0Z"/>
    <path class="cls-4" d="M454.72,359.6c-.14,3.19-4.14,6.37-5.47,9.25-1.52,3.3-2.12,6.9-1.74,10.51.73,7.06,5.34,13.22,11.86,16.01,6.88,2.95,14.86-2.17,11.04-9.99-1.38-2.82-3.93-4.98-6.19-7.06-3.22-2.96-4.35-5.34-5.94-9.37-2.8-7.1-14.41-4.01-11.57,3.19,1.61,4.09,2.69,7.91,5.63,11.31,1.74,2.02,6.82,4.94,7.29,7.54l.6-4.62-.38.83,3.59-2.76c1.28.27,1.48.24.59-.09-.6-.24-1.16-.56-1.68-.95-.79-.61-1.46-1.44-1.96-2.29-1.38-2.37-1.27-5.13-.1-7.56,2.45-5.07,6.17-7.87,6.44-13.94.35-7.72-11.65-7.7-12,0h0Z"/>
    <path class="cls-4" d="M449.37,368.05c-9.67,17.11,16.06,29.82,8.22,46.75l3.59-2.76-.77.29,4.62.6c1.02,1.83,1.19,1.71.51-.36-.19-.83-.37-1.66-.55-2.48-.36-1.66-.71-3.33-1.06-4.99-.77-3.6-1.54-7.21-2.51-10.76-1.9-6.98-4.53-13.75-8.49-19.83-1.99-3.05-6.74-4.25-9.42-1.21-3.29,3.71-3.14,7.75-2.84,12.47.35,5.49,1.16,10.96,2.08,16.39,1.88,11.17,3.86,22.15,4.37,33.49h12c-.72-8.74-3.76-16.49-7.71-24.25-2.01-3.96-4.12-7.87-6.18-11.79-1.7-3.23-3.11-7.03-6.64-8.65-4.1-1.88-8.91.33-9.03,5.18-.21,8.49.79,16.88,2.91,25.1,1.2,4.64,8.79,6.28,10.97,1.43,1.27-2.84,1.98-5.39,2.16-8.52-3.73,1.01-7.45,2.02-11.18,3.03,2.59-4.6,2.3-6.32-.85-5.16-1.22.21-2.44.42-3.66.62-2.44.4-4.89.75-7.35,1.09l5.84,10.03c1.37-1.12,2.82-1.95,4.37-2.77,6.81-3.64.76-14-6.06-10.36-2.47,1.32-4.63,2.89-6.8,4.65-5.26,4.28.73,10.73,5.84,10.03,6.97-.96,25.75-2.27,19.03-14.17-3.06-5.42-10.85-2.69-11.18,3.03,0,.86-.17,1.68-.52,2.46,3.66.48,7.31.96,10.97,1.43-1.87-7.24-2.67-14.44-2.48-21.91-3.01,1.73-6.02,3.45-9.03,5.18,1.39.64,2.9,5.42,3.7,6.94,1.61,3.06,3.25,6.11,4.82,9.2,2.91,5.74,5.53,11.71,6.07,18.19.63,7.59,12.35,7.8,12,0-.43-9.56-1.68-18.98-3.33-28.39-.76-4.3-1.57-8.58-2.2-12.9-.37-2.54-.66-5.1-.85-7.66-.09-1.24-.16-2.48-.2-3.72.34-2.02.16-2.42-.53-1.2l-9.42-1.21c5.17,7.93,7.46,16.91,9.44,26.06,1.3,6.03,2.97,21.42,13.08,16.69,7.24-3.39,6.25-17.88,4.45-24.02-1.28-4.35-3.4-8.47-5.69-12.36-2.05-3.48-6.5-8.6-4.11-12.82,3.81-6.73-6.56-12.79-10.36-6.06h0Z"/>
    <path class="cls-4" d="M408.61,229.23c.96,8.85,1.78,17.66,1.38,26.57s-.84,16.71.06,25.16c.89,8.35,2.25,16.66,3.45,24.97.65,4.52,1.31,9.03,1.96,13.55.61,4.23,2.03,8.98,1.63,13.22l2.97-5.18c2.75-.19,3.14-.73,1.17-1.6-.76-.6-1.47-1.24-2.16-1.92-1.23-1.21-2.26-2.51-3.16-3.98-2.15-3.5-3.23-7.49-3.82-11.53-1.21-8.32-1.21-17.03-1.32-25.43-.24-18.2,5.57-36.8,1.38-54.79-1.55-6.64-11.81-5.12-11.79,1.6.06,18.32.81,36.64,2.7,54.87.93,8.99,2.12,17.95,3.6,26.87,1.22,7.34,2.81,15.05,12.02,13.7,2.97-.44,5.3-4.64,4.19-7.38-2.8-6.9-5.18-13.76-6.52-21.11s-2.07-14.55-3.31-21.79c-2.5-14.6-6.02-29-9.41-43.42-1.3-5.55-10.5-5.89-11.57,0-3.22,17.65-.08,34.92,1.55,52.54,1.6,17.3-.68,35.03,4.21,51.93,2.15,7.44,13.27,4.33,11.57-3.19-5.96-26.48-11.41-53.06-16.33-79.75-1.04-5.65-10.67-5.81-11.57,0-3.86,24.88,4.38,48.58,7.98,72.95l10.97-4.62c-7.27-12.86-15.56-26.38-15.51-41.55.02-5.86-1.63-12.29-7.6-14.73s-11.22.84-13.32,6.29c-2.43,6.29,5.94,9.03,10.03,5.84,2.25-1.76,3.56-4.28,4.18-7.05s-.65-7.46.57-9.82c1.34-2.6,5.08-4.77,7.22-6.72,3.28-2.98,6.56-5.95,9.84-8.93l-10.03-2.65c.74,1.86,1.31,3.65,1.47,5.66.6,7.65,12.61,7.71,12,0-.24-3.09-.75-5.96-1.9-8.85-1.68-4.23-6.45-5.9-10.03-2.65-5.67,5.14-12.27,10.03-17.27,15.83-2.07,2.4-3.16,5.26-3.45,8.4-.22,2.43,1.02,6.63-1.09,8.28l10.03,5.84c-2.58.2-3.47,1.13-2.68,2.78.06,1.1.06,2.2.02,3.3.01,2.38.07,4.67.38,7.04.62,4.76,1.96,9.28,3.74,13.73,3.6,8.99,8.28,17.59,13.05,26.01,3.6,6.36,11.9,1.7,10.97-4.62-3.24-21.93-11.46-44.17-7.98-66.57h-11.57c4.92,26.69,10.37,53.28,16.33,79.75l11.57-3.19c-4.57-15.79-2.28-32.54-3.78-48.74-1.52-16.34-4.96-32.98-1.98-49.35h-11.57c3.39,14.41,6.9,28.82,9.41,43.42,1.24,7.24,2,14.56,3.31,21.79s3.72,14.21,6.52,21.11c1.4-2.46,2.79-4.92,4.19-7.38,3.05,1.61,4.24,1.45,3.58-.48-.18-.97-.35-1.93-.51-2.9-.28-1.61-.54-3.22-.8-4.84-.58-3.67-1.12-7.34-1.58-11.03-.91-7.14-1.62-14.3-2.18-21.47-1.12-14.35-1.58-28.75-1.63-43.14l-11.79,1.6c3.62,15.52-1.74,32.05-1.83,47.76-.08,13.9-.86,30.5,5,43.43,2.59,5.73,6.84,10.52,12.03,14.04s13.16,3.16,13.36-4.63-2.15-15.98-3.24-23.52c-1.19-8.21-2.5-16.41-3.52-24.64-1.14-9.13-.93-18-.46-27.16.48-9.23-.34-18.35-1.33-27.52-.82-7.6-12.83-7.68-12,0h0Z"/>
    <path class="cls-4" d="M417.98,360.55c-1.49,9.62-11.74,9.07-19,9.86-4.19.46-8.3,1.36-12.45,2.02s-10.06,1.85-13.82-.56c-6.53-4.17-12.55,6.21-6.06,10.36,10.89,6.96,25.86.28,37.6-.17,10.82-.41,23.44-6.37,25.29-18.32,1.17-7.55-10.39-10.81-11.57-3.19h0Z"/>
    <path class="cls-4" d="M380.9,308.08c-7.35,9.69-15.82,18.44-23.2,28.1-7.38,9.67-14.14,20.16-20.1,30.77-5.41,9.65-9.51,20.11-11.89,30.92s-4.21,23.45-.08,34.27c1.83,4.79,8.03,6.02,10.97,1.43,6.42-10.02,4.52-21.99,9.15-32.51-3.66-.48-7.31-.96-10.97-1.43,1.49,9.88,2.17,19.83,2.21,29.81.02,4.61,5.06,7.4,9.03,5.18,2.95-1.65,5.77-2.33,9.16-2.3,4.89.05,8.32-6.81,4.24-10.24-10.98-9.25-13.47-23.94-5.76-36.16,4.14-6.55-6.24-12.58-10.36-6.06-10.38,16.43-7.3,38.13,7.63,50.7l4.24-10.24c-5.45-.05-10.46,1.28-15.21,3.93l9.03,5.18c-.05-11.07-.99-22.06-2.64-33-.74-4.92-8.95-6-10.97-1.43-4.56,10.34-3.03,22.96-9.15,32.51,3.66.48,7.31.96,10.97,1.43-3.78-9.89-1.66-21.31.88-31.28,2.69-10.55,7.11-20.27,12.75-29.55,5.73-9.42,11.62-19.03,18.6-27.58s14.9-17.28,21.82-26.4c4.67-6.15-5.75-12.14-10.36-6.06h0Z"/>
    <path class="cls-4" d="M340.67,413.21c4.19-.99,6.42-4.32,8.88-7.6,2.96-3.94,5.69-8.04,8.29-12.22,5.06-8.15,9.58-16.62,14.27-24.98,4.56-8.12,9.3-16.16,14.81-23.67,6.09-8.3,13.1-15.89,20.02-23.49,4.39-4.82-1.32-13.33-7.27-9.42-5.43,3.56-9.22,8.63-13.25,13.63-4.51,5.59-8.93,11.24-13.29,16.95-8.88,11.6-17.41,23.46-25.64,35.52l10.36,6.06c12.17-24.24,18.98-52.08,37.2-72.84l-10.24-4.24c-2.17,21.23-9.64,41.48-21.34,59.29-3.14,4.78,3.38,11.91,8.21,8.21,10.15-7.78,18.1-17.37,25.92-27.41l-9.42-7.27c-3.93,6.99-7.87,13.97-11.8,20.96-3.05,5.41,2.95,10.88,8.21,8.21,4.88-2.48,7.85-6.91,11.04-11.19,4.07-5.46,8.14-10.93,12.2-16.39l-10.97-4.62c-.91,4.27-3.38,7.45-6.14,10.74l10.24,4.24.05-1.36c.28-7.72-11.72-7.71-12,0l-.05,1.36c-.18,4.94,6.87,8.26,10.24,4.24,4.06-4.83,7.88-9.73,9.23-16.03,1.48-6.93-6.96-10-10.97-4.62-3.29,4.42-6.59,8.84-9.88,13.27-2.61,3.51-5.04,7.97-9.06,10.01,2.74,2.74,5.47,5.47,8.21,8.21,3.93-6.99,7.87-13.97,11.8-20.96,3.2-5.69-5.1-12.82-9.42-7.27-7.08,9.09-14.28,18.47-23.49,25.54,2.74,2.74,5.47,5.47,8.21,8.21,12.91-19.66,20.59-41.98,22.98-65.35.52-5.13-6.96-7.99-10.24-4.24-19.08,21.75-26.34,49.91-39.08,75.27-3.48,6.93,6.01,12.44,10.36,6.06,7.52-11.02,15.28-21.86,23.34-32.49,3.91-5.16,7.89-10.27,11.94-15.32,3.76-4.7,7.5-10.63,12.61-13.98l-7.27-9.42c-12.43,13.65-23.94,27.54-33.25,43.53-4.39,7.54-8.49,15.25-12.84,22.81-2.31,4.02-4.69,8.01-7.22,11.9-1.26,1.94-2.56,3.86-3.91,5.75-.7.99-2.59,4.61-3.76,4.89-7.51,1.78-4.33,13.36,3.19,11.57h0Z"/>
    <path class="cls-4" d="M393.19,325.26c-2.38,8.33-3.52,18.02,6.44,21.08,1.42.44,2.96.32,3.8,1.62.96,1.49.72,4.37.98,6.09.37,2.5,1.05,4.83,1.96,7.19.4,1.03.84,2.05,1.25,3.09.35.87.49,2.83.84,1.68l2.76-3.59c-1.38.84-4.81.76-6.49,1.08-2.97.57-5.91,1.25-8.83,2.03-5.55,1.49-10.97,3.37-16.28,5.56l7.6,5.79c-.23-9.98,14.3-13.7,21.97-15.55-2.46-1.4-4.92-2.79-7.38-4.19.35-2-.17-2.34-1.57-1.03-.93.51-1.86,1.03-2.78,1.55-1.85,1.06-3.69,2.14-5.49,3.29-3.13,1.98-6.15,4.12-9.05,6.42-6.17,4.9-11.45,10.71-15.31,17.62-3.77,6.75,6.6,12.81,10.36,6.06,4.58-8.21,11.54-14.27,19.38-19.3,6.19-3.97,19.15-8.17,16.03-17.8-1.02-3.16-4.1-4.98-7.38-4.19-13.48,3.25-31.17,10.67-30.78,27.13.08,3.49,3.84,7.33,7.6,5.79,7.84-3.22,15.91-5.75,24.23-7.41,3.27-.65,7.4-.53,10.24-2.47,3.47-2.37,3.76-6.41,2.52-10.1s-3.06-7.1-3.68-11.03c-.57-3.63-.76-7.07-2.67-10.32-1.73-2.95-4.39-4.72-7.58-5.78-1.37-.46-3.35-1.77-2.44.19-.76-1.63.87-5.66,1.34-7.29,2.12-7.44-9.45-10.61-11.57-3.19h0Z"/>
    <path class="cls-4" d="M369.26,371.72c-2.31,2.59-4.27,5.29-5.71,8.45s-2.14,6.41-3.7,9.35c-3.11,5.84-10.83,7.96-16.51,10.49-7.04,3.13-.95,13.47,6.06,10.36,6.46-2.87,13.59-5.39,18.25-10.98,4.76-5.71,5.14-13.61,10.1-19.18s-3.34-14.27-8.49-8.49h0Z"/>
    <path class="cls-4" d="M367.62,403.44c7.72,0,7.73-12,0-12s-7.73,12,0,12h0Z"/>
    <path class="cls-3" d="M472.43,441.87c-2.14-4.46-5.28-7.7-10.32-8.53-2.22-.37-4.45-.32-6.65-.84-1.12-.27-2.23-.66-3.31-1.05-.77-.27-1.54-.57-2.29-.9-.88-.37-.88-.37-.01,0l.6,4.62.26-1.15-2.76,3.59c-1.01.12-.94.16.21.13.92.01,1.83.03,2.75.04,1.22.02,2.45.04,3.67.07,3.37.08,6.73.21,10.09.45,6.49.47,12.83,1.49,19.09,3.29,7.44,2.14,10.61-9.44,3.19-11.57-7.56-2.17-15.35-3.27-23.19-3.78-3.67-.24-7.34-.35-11.02-.43-3.38-.07-7.3-.64-10.34,1.13-6.31,3.69-3.63,11.45,1.86,14.2,3,1.5,6.4,2.66,9.68,3.3,1.54.3,3.11.35,4.66.54,2.35.3,2.38.72,3.45,2.93,3.34,6.96,13.69.88,10.36-6.06h0Z"/>
    <path d="M319.71,54.25c-.08,13.11,9.86,22.73,13.32,34.76,1.43,4.98,2.08,10.84-.24,15.67-1.19,2.48-3.04,4.02-5.07,5.79-2.29,2-3.48,4.53-2.31,7.5.61,1.55,1.5,3.02,2.29,4.49.93,1.75,1.87,3.51,2.8,5.26,1.79,3.36,3.58,6.72,5.37,10.08s3.74,7.01,5.61,10.52c1.62,3.04,3.13,6.22,5.19,9,3.93,5.3,9.9,7.76,16.19,9.09s12.28,1.66,18.43,1.14c13.67-1.17,26.82-6.57,37.2-15.57,1.46-1.27-.67-3.38-2.12-2.12-8.96,7.77-20.22,12.71-31.95,14.34-5.7.79-11.58.81-17.27-.05s-12.52-2.43-16.75-7c-2.2-2.37-3.65-5.33-5.15-8.16-1.79-3.36-3.58-6.72-5.37-10.08-3.43-6.43-6.85-12.85-10.28-19.28-.66-1.24-1.88-2.89-1.68-4.39.18-1.28,1.43-2.23,2.35-3,2-1.67,3.78-3.4,4.98-5.75,2.35-4.61,2.41-9.96,1.47-14.95-1.19-6.37-4.3-11.95-7.36-17.58-3.33-6.12-6.69-12.55-6.64-19.7.01-1.93-2.99-1.93-3,0h0Z"/>
    <path d="M316.06,53.46c-1.12-.11-.84-2.52-.73-3.2.34-2.13,1.4-4.22,2.14-6.23,1.75-4.71,3.28-9.62,5.67-14.05,2.26-4.18,5.5-7.24,9.61-9.59s8.59-4.11,12.94-5.97c9.52-4.06,19.26-7.87,29.44-9.94s20.29-1.91,30.28.86c4.98,1.38,9.84,3.18,14.65,5.04s9.66,3.92,14.27,6.34c7.83,4.11,14.93,9.4,21.03,15.81s10.84,13.37,14.54,21.12c4.02,8.41,7.01,17.95,6.81,27.34-.11,5.17-1.3,10.22-2.79,15.15s-3.19,9.91-4.99,14.79-3.79,9.19-6.33,13.5c-2.3,3.9-4.74,7.74-6.3,12.02-.76,2.1-1.23,4.27-1.4,6.5-.15,1.93,2.85,1.92,3,0,.37-4.82,2.66-9.15,5.06-13.24,2.58-4.4,5.12-8.73,7.09-13.44,2.09-5,3.79-10.16,5.49-15.3s3.22-10.37,3.87-15.78c1.22-10.13-1.48-20.41-5.41-29.68-3.51-8.26-8.37-15.92-14.3-22.65s-13.25-12.75-21.21-17.26c-4.69-2.66-9.62-4.87-14.61-6.89s-10.19-3.99-15.42-5.58-10.39-2.67-15.76-3-10.65.11-15.89,1.01c-10.66,1.84-20.84,5.74-30.77,9.92-8.91,3.76-19.12,7.16-24.53,15.77-2.73,4.35-4.31,9.36-6.09,14.14-.91,2.44-1.97,4.87-2.72,7.36-.5,1.66-.71,3.66-.16,5.33s1.78,2.63,3.51,2.81c1.92.19,1.91-2.81,0-3h0Z"/>
    <path d="M377.66,24.26c-3.02,3.96-7.63,6.28-11.96,8.51-4.6,2.37-9.08,4.94-13.45,7.71-8.84,5.6-17.3,11.79-26.28,17.19-5.08,3.06-10.33,5.86-15.83,8.1-1.77.72-.99,3.62.8,2.89,20.1-8.17,36.38-23.05,55.56-32.93,5.1-2.63,10.21-5.3,13.76-9.96,1.17-1.53-1.43-3.03-2.59-1.51h0Z"/>
    <path d="M359.04,23.05c-8.07,2.89-15.32,7.46-22.45,12.15-3.46,2.28-7.02,4.53-9.63,7.82-2.79,3.51-4.91,7.57-7.22,11.41-2.74,4.55-5.48,9.11-8.22,13.66-1,1.66,1.6,3.17,2.59,1.51,2.31-3.84,4.62-7.69,6.93-11.53s4.39-7.57,6.8-11.21,5.46-5.91,8.93-8.2,6.83-4.5,10.36-6.58c4.06-2.39,8.25-4.54,12.69-6.13,1.8-.65,1.03-3.55-.8-2.89h0Z"/>
    <path d="M375.83,20.93c1.05,19.38,5.21,39.35,16.26,55.65,2.96,4.36,6.44,8.31,9.87,12.3,3.6,4.18,6.91,8.54,9.95,13.14s5.9,9.05,8.65,13.69c2.71,4.58,5.14,9.33,6.72,14.42,3.62,11.66,3.11,24.06,2.29,36.09-.13,1.93,2.87,1.92,3,0,.73-10.66,1.16-21.51-1.12-32.03-2.28-10.53-7.9-19.56-13.61-28.53-2.94-4.63-5.94-9.22-9.31-13.55s-7.05-8.21-10.43-12.43c-6.17-7.71-10.63-16.64-13.64-26.03-3.39-10.59-5.02-21.65-5.62-32.74-.1-1.92-3.1-1.93-3,0h0Z"/>
    <path d="M454.76,145.48c1.07,3.11,2.17,6.3,2.09,9.64s-1.21,6.41-2.51,9.36c-1.94,4.39-4.42,10.21-9.58,11.44-1.88.45-1.08,3.34.8,2.89,6.04-1.45,9.07-7.63,11.37-12.82,1.47-3.31,2.71-6.76,2.9-10.42s-.98-7.38-2.18-10.89c-.62-1.82-3.52-1.04-2.89.8h0Z"/>
    <path d="M435.13,162.36c-1.4,2.24-1.67,4.96-2.38,7.46s-1.6,5.21-1.77,7.94c-.33,5.49,3.17,9.2,7.1,12.47,1.47,1.23,3.61-.89,2.12-2.12-1.63-1.36-3.35-2.75-4.59-4.49-1.34-1.88-1.82-4-1.6-6.29s1.05-4.65,1.69-6.93.81-4.59,2.02-6.53c1.03-1.64-1.57-3.15-2.59-1.51h0Z"/>
    <path d="M445.89,177.79c4.41,1.69,6.76,6.63,6.79,11.14.04,5.64-3.16,10.8-6.73,14.93-1.26,1.45.86,3.58,2.12,2.12,4.22-4.88,7.95-11.05,7.59-17.74-.31-5.73-3.48-11.23-8.98-13.34-1.81-.69-2.59,2.21-.8,2.89h0Z"/>
    <path d="M436.07,190.69c-1.04,3.05-2.06,6.11-3.07,9.17s-2.15,6.28-2.88,9.51c-.6,2.67-.7,5.37,1.18,7.55,1.55,1.79,3.91,2.66,6.08,3.4,1.83.62,2.62-2.28.8-2.89-1.68-.57-3.71-1.23-4.83-2.71-1.53-2.02-.23-5.23.39-7.37,1.57-5.33,3.41-10.6,5.2-15.86.62-1.83-2.27-2.62-2.89-.8h0Z"/>
    <path d="M448.83,204.24c.3.08.31.05.03-.08.08.1.13.21.15.33.03.24.1.48.13.72.1.85.1,1.72.07,2.57-.06,1.64-.31,3.26-.69,4.86-.79,3.33-2.05,6.52-3.34,9.68-.31.76.33,1.64,1.05,1.85.85.24,1.54-.3,1.85-1.05,1.56-3.84,3.11-7.74,3.77-11.84.32-2,.49-4.04.3-6.06-.15-1.59-.68-3.55-2.52-3.86s-2.7,2.56-.8,2.89h0Z"/>
    <path d="M438.36,217.04c-2.12,2.54-4.05,5.09-5.16,8.24-1.01,2.87-1.35,5.99-1.26,9.03s.55,6.04,1.29,8.94c.69,2.71,1.91,5.16,4.6,6.29.75.32,1.64-.34,1.85-1.05.25-.86-.3-1.53-1.05-1.85-1.95-.82-2.43-3.73-2.82-5.54-.54-2.51-.88-5.06-.89-7.63s.31-4.89,1.1-7.21c.93-2.71,2.64-4.93,4.46-7.11,1.23-1.47-.88-3.61-2.12-2.12h0Z"/>
    <path d="M444.88,223.56c1.47,3.85,3.03,7.85,3.24,12.02s-1.4,8.24-2.18,12.37c-.35,1.89,2.54,2.7,2.89.8.82-4.4,2.51-8.63,2.28-13.17s-1.78-8.68-3.35-12.81c-.68-1.79-3.58-1.01-2.89.8h0Z"/>
    <path d="M443.49,252.78c.86-2.09,1.25-4.49,2.58-6.35.66-.92,3.66-3.33,4.24-1.15.53,2.02-.1,4.63-.86,6.51-.2.5-.44.99-.71,1.47-.07.13-.24.52-.38.63.39-.34.37-.11-.05-.43-.95-.71-1.79-1.56-2.61-2.4-3.09-3.16-6.23-6.86-10.88-7.52-2.36-.33-4.28.31-5.22,2.62s-1.01,4.77-.4,7.08c.3,1.11.79,2.18,1.83,2.77,1.14.64,2.5.37,3.7.1,2.65-.6,5.19-1.73,7.43-3.26,1.59-1.08.09-3.68-1.51-2.59-2.05,1.4-4.29,2.41-6.71,2.96-.34.08-1.13.35-1.45.19-.25-.13-.32-.71-.39-.96-.34-1.27-.37-2.64-.09-3.92.19-.86.36-2.04,1.4-2.09s2.2.27,3.17.73c2.12,1,3.8,2.66,5.4,4.34s3.15,3.48,5.09,4.73c.92.6,2.07.79,3.02.14s1.47-1.93,1.91-2.93c1.44-3.24,3.27-11.12-2-11.92-2.48-.37-4.74,1.06-6.19,2.96-1.67,2.19-2.17,4.98-3.19,7.48-.31.76.34,1.64,1.05,1.85.86.25,1.54-.3,1.85-1.05h0Z"/>
    <path d="M440.7,251.54c.13,1.27.16,2.59-.32,3.71s-1.39,1.87-2.45,2.48-2.14,1.04-3.28,1.18-2.06,0-3-.72c-.65-.49-1.68-.1-2.05.54-.45.77-.11,1.56.54,2.05,2.71,2.06,6.61,1.1,9.31-.45,1.42-.82,2.76-1.97,3.48-3.47.8-1.66.97-3.5.77-5.31-.08-.81-.63-1.5-1.5-1.5-.75,0-1.59.69-1.5,1.5h0Z"/>
    <path d="M441.98,257.24c.57-.76,1.83-.7,2.63-.47,1.45.42,2.67,1.45,3.91,2.27,2.71,1.78,5.92,2.44,8.79.6,1.62-1.03.12-3.63-1.51-2.59-3.02,1.92-5.54-.62-8.06-2.12-2.72-1.62-6.27-1.99-8.36.8-.49.65-.11,1.68.54,2.05.77.45,1.57.11,2.05-.54h0Z"/>
    <path d="M442.51,256c-1.16,3.99-1.89,8.09-2.16,12.23-.13,1.98-.23,4,.55,5.86.64,1.54,1.82,2.84,2.14,4.51.37,1.89,3.26,1.09,2.89-.8-.31-1.59-1.25-2.86-1.99-4.27-.88-1.65-.71-3.5-.59-5.31.26-3.88.97-7.7,2.05-11.44.54-1.86-2.35-2.65-2.89-.8h0Z"/>
    <path d="M444.55,258.43c2.23,3.32,4.36,7.06,5.4,10.95s-1.44,6.78-3.85,9.46c-1.29,1.43.83,3.56,2.12,2.12,2.83-3.14,5.59-6.7,4.88-11.18-.36-2.25-1.38-4.44-2.34-6.49-1.04-2.22-2.26-4.34-3.62-6.37-1.07-1.59-3.67-.09-2.59,1.51h0Z"/>
    <path d="M444.3,267.84c1.09,4.35.63,9.03-1.34,13.06-.36.73-.2,1.62.54,2.05.66.39,1.69.19,2.05-.54,2.34-4.77,2.94-10.21,1.65-15.37-.47-1.87-3.36-1.08-2.89.8h0Z"/>
    <path d="M344.61,88.69c1.32,1.58,3.4,2.35,5.24,3.14,2.05.87,4.18,1.6,6.43,1.61,3.68,0,8.34-1.98,8.96-6.05.12-.8-.2-1.61-1.05-1.85-.71-.2-1.72.24-1.85,1.05-.46,3-4.12,4.01-6.72,3.83-1.69-.12-3.34-.76-4.87-1.44-1.42-.62-3.01-1.19-4.03-2.41-.52-.62-1.58-.54-2.12,0-.62.62-.52,1.5,0,2.12h0Z"/>
    <path d="M355.11,92.72c.42,1.73,1.39,3.37,2.71,4.56.29.27.66.44,1.06.44.37,0,.81-.16,1.06-.44s.46-.66.44-1.06-.14-.79-.44-1.06c-.34-.31-.66-.65-.94-1.02l.23.3c-.4-.52-.73-1.08-.99-1.69l.15.36c-.16-.39-.3-.79-.4-1.2-.19-.76-1.09-1.29-1.85-1.05s-1.25,1.03-1.05,1.85h0Z"/>
    <path d="M361.26,91.66c.86,1.17,1.69,2.36,2.5,3.56.22.33.51.58.9.69.36.1.84.05,1.16-.15s.6-.51.69-.9.07-.82-.15-1.16c-.81-1.2-1.65-2.39-2.5-3.56-.24-.33-.49-.58-.9-.69-.36-.1-.84-.05-1.16.15s-.6.51-.69.9-.08.84.15,1.16h0Z"/>
    <path d="M342.27,142.38c5.43.69,10.95,1.3,16.33-.07,1.87-.48,1.08-3.37-.8-2.89-5.09,1.3-10.39.62-15.53-.03-.81-.1-1.5.76-1.5,1.5,0,.9.69,1.4,1.5,1.5h0Z"/>
    <path d="M393.95,171.29c.39,11.01.75,22.02,1.07,33.03.06,1.93,3.06,1.93,3,0-.32-11.01-.67-22.02-1.07-33.03-.07-1.92-3.07-1.93-3,0h0Z"/>
    <path d="M425.7,204.92c-9.09,4.38-18.94,7.15-28.98,8.15-1.9.19-1.92,3.19,0,3,10.6-1.05,20.89-3.94,30.5-8.56,1.74-.84.22-3.42-1.51-2.59h0Z"/>
    <path d="M417.18,45.64c7.84,5.59,11.93,14.93,13.9,24.08,2.46,11.36,2.11,23.12,4.12,34.55,1.17,6.63,2.92,13.14,4.67,19.64.5,1.86,3.4,1.07,2.89-.8-1.58-5.88-3.17-11.76-4.32-17.75-1.16-6.02-1.68-12.11-2.17-18.22-.87-10.85-1.95-21.92-7.05-31.73-2.54-4.88-6.04-9.17-10.53-12.37-1.57-1.12-3.07,1.48-1.51,2.59h0Z"/>
    <path d="M458.21,79.75c6.48,9.22,2.8,20.9-.26,30.64-.85,2.72-1.64,5.45-2.36,8.2s-1.53,5.61-2.86,8.21c-2.53,4.95-6.06,9.29-8.6,14.24-2.91,5.67-5.06,11.68-7.19,17.67-.65,1.82,2.25,2.61,2.89.8,1.97-5.53,3.95-11.08,6.58-16.34s6.28-9.7,8.91-14.85,3.61-10.98,5.32-16.47,3.56-11.06,4.04-16.86-.47-11.92-3.88-16.76c-1.1-1.57-3.7-.07-2.59,1.51h0Z"/>
    <path d="M393.45,219.9c-3.73,6.38-8.01,12.42-12.82,18.03-2.39,2.79-4.91,5.47-7.54,8.03-2.46,2.4-4.99,4.77-6.87,7.67-4.03,6.23-3.44,14.03-3.18,21.12.14,3.84.39,7.69,1.07,11.48s2.1,7.31,3.29,10.97c1.1,3.4,1.47,6.82.68,10.33s-2.25,6.46-4.02,9.38c-3.72,6.16-8.45,11.67-12.55,17.57-8.27,11.9-15.44,24.56-21.41,37.77s-10.75,26.91-14.23,40.97c-.44,1.76-.85,3.52-1.24,5.29-.42,1.88,2.47,2.68,2.89.8,6.35-28.32,17.91-55.39,34.02-79.53,3.98-5.97,8.45-11.57,12.56-17.44,3.79-5.42,7.26-11.56,7.43-18.34.09-3.71-1.04-7.15-2.29-10.59-1.33-3.66-2.27-7.35-2.7-11.23s-.52-7.69-.62-11.54c-.09-3.62-.14-7.31.82-10.84,1.07-3.9,3.57-6.88,6.39-9.68s5.77-5.69,8.46-8.73c5.45-6.17,10.29-12.87,14.45-19.97.98-1.67-1.61-3.18-2.59-1.51h0Z"/>
    <path d="M461.2,230.83c11.93,23.85,22.97,48.15,33.07,72.83,1.17,2.86,2.58,5.81,2.92,8.91s-.74,6.2-2.24,8.94c-2.77,5.08-6.78,9.3-11.03,13.18-4.47,4.09-9.17,7.92-13.7,11.95-4.76,4.24-9.44,8.57-14.03,13-10.41,10.04-20.36,20.55-29.83,31.48-1.26,1.45.85,3.58,2.12,2.12,8.6-9.93,17.61-19.51,26.99-28.71s18.98-17.47,28.67-26.02c4.4-3.88,8.65-8.03,11.88-12.96,1.63-2.5,3.1-5.25,3.79-8.17.74-3.12.39-6.23-.61-9.25s-2.44-6.23-3.71-9.3-2.58-6.2-3.89-9.29c-2.65-6.24-5.36-12.46-8.13-18.65-6.26-14-12.83-27.86-19.69-41.58-.86-1.73-3.45-.21-2.59,1.51h0Z"/>
    <path d="M452.18,289.85c2.04,8.84,3.12,17.85,3.22,26.91.02,1.93,3.02,1.93,3,0-.11-9.33-1.23-18.62-3.33-27.71-.43-1.88-3.33-1.08-2.89.8h0Z"/>
    <path d="M463.21,308.77c1.57,4.36-1.22,8.59-3.75,11.97-2.85,3.8-5.84,7.49-8.63,11.33-5.7,7.86-10.98,16.01-15.82,24.42-2.75,4.77-5.34,9.62-7.8,14.54-.86,1.72,1.73,3.24,2.59,1.51,4.51-9.02,9.5-17.8,14.96-26.29,2.73-4.24,5.58-8.41,8.53-12.49,2.91-4.03,6.08-7.86,9.02-11.86,2.91-3.96,5.6-8.95,3.8-13.94-.65-1.8-3.55-1.03-2.89.8h0Z"/>
    <path d="M419.64,379.93c1.83,4.18,3.66,8.35,5.49,12.53.33.74,1.41.91,2.05.54.77-.45.86-1.31.54-2.05-1.83-4.18-3.66-8.35-5.49-12.53-.33-.74-1.41-.91-2.05-.54-.77.45-.86,1.31-.54,2.05h0Z"/>
    <path d="M420.78,376.47c-7.67,3.91-15.95,6.56-24.47,7.86-4.18.64-8.33.69-12.54.92-4.04.22-7.28,2.09-9.51,5.48s-2.95,7.79-1.52,11.62c.67,1.79,3.57,1.02,2.89-.8-1.17-3.14-.62-6.53,1.22-9.3.93-1.4,2.24-2.68,3.79-3.36,1.79-.78,3.82-.65,5.72-.69,7.95-.18,15.9-1.53,23.48-3.97,4.28-1.38,8.44-3.12,12.45-5.16,1.72-.88.2-3.47-1.51-2.59h0Z"/>
    <path d="M425.32,398.32c-12.75,10.59-27.62,19.21-43.4,24.36-7.55,2.46-16.36,3.85-23.23-1.1-2.67-1.92-4.79-4.72-5.45-7.98-.34-1.66-.37-3.75.67-5.18.86-1.19,2.3-1.78,3.67-2.15,1.88-.5,3.82-.62,5.74-.84,2.45-.28,4.88-.65,7.3-1.12,4.88-.95,9.66-2.33,14.31-4.08,1.79-.67,1.01-3.58-.8-2.89-4.5,1.7-9.13,3.04-13.85,3.99-2.45.49-4.93.88-7.42,1.15-1.81.2-3.63.33-5.41.73-3.78.84-6.84,3.1-7.31,7.15-.44,3.73.96,7.38,3.26,10.26,5.43,6.83,14.4,8.18,22.55,6.7,4.74-.86,9.3-2.55,13.76-4.34,4.18-1.69,8.29-3.56,12.3-5.63,9.07-4.69,17.59-10.39,25.45-16.92,1.49-1.23-.65-3.35-2.12-2.12h0Z"/>
    <path d="M463.46,360.5c-7.8,15.64,8.37,29.77,7.32,45.31-.13,1.93,2.87,1.92,3,0,.54-7.94-3.07-15.19-5.99-22.34-2.7-6.61-5.14-14.64-1.75-21.45.86-1.72-1.73-3.24-2.59-1.51h0Z"/>
    <path class="cls-8" d="M440.41,250.99c.43-.84,1.39-1.16,2.17-1.61.94-.54,1.82-1.17,2.72-1.77,1.54-1.03,3.59-2.49,5.57-2.12,1.07.2.89,1.34.91,2.22.03,1.27.07,2.64-.44,3.83-.33.78-.97,1.58-1.84,1.77-1.08.24-2.15-.48-2.97-1.09-1.88-1.4-3.49-3.08-5.54-4.25-1.93-1.09-4.16-1.81-6.4-1.63-2.1.17-4.46,1.05-5.55,2.98-1.01,1.77-.47,4.04.94,5.43,1.73,1.71,4.48,1.87,6.66,1.06,2.52-.93,4.64-2.75,6.8-4.3l-2.05-.54c.84,1.53-.21,3.26-1.06,4.54-.92,1.39-1.76,2.74-2.49,4.24-.46.95-1.08,2.35-2.37,1.97-1.37-.4-2.47-1.66-3.75-2.29-1.73-.85-3.25,1.73-1.51,2.59s3.19,2.5,5.24,2.74c2.15.25,3.74-1.17,4.71-2.95.46-.85.81-1.75,1.3-2.58.65-1.11,1.48-2.11,2.11-3.24,1.13-2.03,1.57-4.41.41-6.53-.36-.66-1.41-1-2.05-.54-1.91,1.38-3.86,3.15-6.08,4-1.35.52-4.65.59-4.33-1.73.12-.9,1.27-1.41,2.03-1.64,1.12-.34,2.32-.3,3.45-.02,2.37.59,4.33,2.17,6.14,3.73,1.67,1.45,3.57,3.08,5.91,3.09,2.15.01,3.99-1.42,4.89-3.31,1.01-2.1,1.04-4.75.74-7.03-.32-2.41-2.21-3.66-4.58-3.55-2.48.11-4.61,1.4-6.61,2.75-.99.66-1.97,1.32-3.01,1.9s-2.08,1.24-2.66,2.36c-.88,1.71,1.71,3.23,2.59,1.51h0Z"/>
    <path class="cls-8" d="M440.99,253.03c-.12,1.51.41,2.96,1.35,4.13,1.01,1.25,2.52,1.82,4.05,2.13,3.43.69,6.94,1.35,10.45,1.16,1.92-.1,1.93-3.1,0-3-2.91.15-5.76-.31-8.61-.85-1.07-.2-2.4-.3-3.27-1.02-.77-.64-1.06-1.58-.98-2.54.07-.81-.74-1.5-1.5-1.5-.87,0-1.43.69-1.5,1.5h0Z"/>
  </g>
</svg>